<?xml version="1.0" encoding="utf-8"?>
<!-- Generator: Adobe Illustrator 16.0.0, SVG Export Plug-In . SVG Version: 6.00 Build 0)  -->
<!DOCTYPE svg PUBLIC "-//W3C//DTD SVG 1.1//EN" "http://www.w3.org/Graphics/SVG/1.1/DTD/svg11.dtd">
<svg version="1.1" id="圖層_1" xmlns="http://www.w3.org/2000/svg" xmlns:xlink="http://www.w3.org/1999/xlink" x="0px" y="0px"
	 width="151px" height="151px" viewBox="0 0 151 151" enable-background="new 0 0 151 151" xml:space="preserve">
<rect fill="#FFFFFF" width="151" height="151"/>
<path fill="#A9A9A9" d="M83.715,93.368h4.23c0.893-1.97,2.521-3.978,5.717-3.978h7.838c-4.514-3.201-10.59-5.966-16.303-7.855
	c-0.497-0.164-3.66-1.588-1.684-7.587h-0.027c5.146-5.302,9.08-13.831,9.08-22.226c0-12.912-8.588-19.681-18.564-19.681
	c-9.985,0-18.523,6.765-18.523,19.681c0,8.428,3.909,16.994,9.09,22.281c2.017,5.294-1.593,7.257-2.347,7.531
	c-10.45,3.782-22.712,10.67-22.712,17.472c0,1.832,0,0.721,0,2.547c0,9.264,17.963,11.369,34.589,11.369
	c1.28,0,2.566-0.015,3.85-0.041V99.133C77.949,95.954,80.535,93.368,83.715,93.368z"/>
<g>
	<path fill="#A9A9A9" d="M111.563,97.143h-3.369h-3.592c-0.496-1.99-0.996-3.979-2.982-3.979h-7.954
		c-1.989,0-2.488,1.99-2.983,3.979h-6.964c-1.094,0-1.987,0.896-1.987,1.988v13.625v4.279c0,1.092,0.896,1.988,1.987,1.988h27.851
		c1.096,0,1.992-0.896,1.992-1.988V99.131C113.555,98.038,112.658,97.143,111.563,97.143z M97.639,116.91
		c-3.425,0-6.386-1.953-7.851-4.803c-0.621-1.207-0.978-2.573-0.978-4.025c0-4.875,3.951-8.827,8.828-8.827
		c4.323,0,7.916,3.112,8.674,7.218c0.098,0.521,0.151,1.062,0.151,1.609C106.467,112.957,102.516,116.91,97.639,116.91z
		 M111.564,103.109h-3.271h-0.71v-1.99h0.896h3.084v1.99H111.564z"/>
	<path fill="#A9A9A9" d="M97.639,101.617c-3.572,0-6.464,2.898-6.465,6.467c0,1.367,0.428,2.634,1.15,3.678
		c1.166,1.688,3.109,2.789,5.314,2.789c3.551,0,6.43-2.861,6.463-6.406c0-0.021,0.004-0.039,0.004-0.061
		C104.105,104.514,101.21,101.617,97.639,101.617z"/>
</g>
</svg>
