<?xml version="1.0" encoding="utf-8"?>
<!-- Generator: Adobe Illustrator 14.0.0, SVG Export Plug-In . SVG Version: 6.00 Build 43363)  -->
<!DOCTYPE svg PUBLIC "-//W3C//DTD SVG 1.1//EN" "http://www.w3.org/Graphics/SVG/1.1/DTD/svg11.dtd">
<svg version="1.1" id="圖層_1" xmlns="http://www.w3.org/2000/svg" xmlns:xlink="http://www.w3.org/1999/xlink" x="0px" y="0px"
	 width="40px" height="40px" viewBox="0 0 40 40" enable-background="new 0 0 40 40" xml:space="preserve">
<title>default-upload-avatar1</title>
<g>
	<circle fill="#FFFFFF" cx="20" cy="20" r="20"/>
	<path fill="#A9A9A9" d="M23.597,22.839c-0.239-0.085-1.365-0.704-0.739-2.364c1.788-1.892,2.805-4.383,2.855-6.986
		c0-4.005-2.606-6.135-5.708-6.181c-3.094,0.047-5.708,2.172-5.708,6.181c0.046,2.604,1.063,5.099,2.85,6.995
		c0.626,1.659-0.5,2.276-0.738,2.363c-3.274,1.19-7.124,3.344-7.124,5.479v0.8c0,2.879,5.547,3.553,10.717,3.565
		c5.17,0.014,10.717-0.687,10.717-3.565v-0.821C30.72,26.185,26.87,24.027,23.597,22.839z"/>
</g>
</svg>
