<?xml version="1.0" encoding="utf-8"?>
<!-- Generator: Adobe Illustrator 14.0.0, SVG Export Plug-In . SVG Version: 6.00 Build 43363)  -->
<!DOCTYPE svg PUBLIC "-//W3C//DTD SVG 1.1//EN" "http://www.w3.org/Graphics/SVG/1.1/DTD/svg11.dtd">
<svg version="1.1" id="圖層_1" xmlns="http://www.w3.org/2000/svg" xmlns:xlink="http://www.w3.org/1999/xlink" x="0px" y="0px"
	 width="100px" height="20px" viewBox="0 0 100 20" enable-background="new 0 0 100 20" xml:space="preserve">
<path fill="#58B0A8" d="M2.134,15.993H0v-1.996v-2.001V10V8.004v-2V4.007h2.134v1.997v2V10v1.996v2.001V15.993z M2.134,4.007V2.012
	h2.139v1.996H2.134z M4.272,17.989H2.134v-1.996h2.139V17.989z M14.949,2.012h-2.134h-2.139H8.542H6.407H4.272V0.016h2.134h2.135
	h2.134h2.139h2.134V2.012z M6.407,13.997H4.272v-2.001V10V8.004v-2h2.134v2V10v1.996V13.997z M14.949,17.989h2.134v1.996h-2.134
	h-2.134h-2.139H8.542H6.407H4.272v-1.996h2.134h2.135h2.134h2.139H14.949z M12.815,6.004h-2.139H8.542H6.407V4.007h2.135h2.134
	h2.139V6.004z M10.676,13.997h2.139v1.996h-2.139H8.542H6.407v-1.996h2.135H10.676z M14.949,13.997h-2.134v-2.001V10V8.004v-2h2.134
	v2V10v1.996V13.997z M17.083,4.007h-2.134V2.012h2.134V4.007z M14.949,15.993v-1.996h2.134v1.996H14.949z M17.083,13.997v-2.001V10
	V8.004v-2V4.007h2.134v1.997v2V10v1.996v2.001H17.083z"/>
<path fill="#3E3A39" d="M23.387,19.984v-2.219v-2.219v-2.223v-2.219V8.885V6.662V4.443V2.219h2.373v2.224v2.219v2.223v2.219v2.219
	v2.223v2.219v2.219H23.387z M32.885,2.219H30.51h-2.373H25.76V0h2.377h2.373h2.375V2.219z M32.885,11.104V8.885V6.662V4.443V2.219
	h2.375v2.224v2.219v2.223v2.219H32.885z M40.01,2.219h-2.378H35.26V0h2.372h2.378V2.219z M40.01,19.984v-2.219v-2.219v-2.223v-2.219
	V8.885V6.662V4.443V2.219h2.372v2.224v2.219v2.223v2.219v2.219v2.223v2.219v2.219H40.01z"/>
<path fill="#3E3A39" d="M48.924,17.766h-2.372v-2.219v-2.223v-2.219V8.885V6.662V4.443V2.219h2.372v2.224v2.219v2.223h2.373h2.377
	h2.373h2.376v2.219h-2.376h-2.373h-2.377h-2.373v2.219v2.223V17.766z M58.423,0h2.374v2.219h-2.374h-2.376h-2.373h-2.377h-2.373V0
	h2.373h2.377h2.373H58.423z M58.423,17.766h2.374v2.219h-2.374h-2.376h-2.373h-2.377h-2.373v-2.219h2.373h2.377h2.373H58.423z"/>
<path fill="#3E3A39" d="M76.834,15.557v-2.219v-2.22h-2.372H72.09h-2.378h-2.372V8.896h2.372h2.378h2.373h2.372V6.677V4.453V2.234
	h2.379v2.219v2.224v2.219v2.222v2.22v2.219v2.224h-2.379V15.557z M69.711,0.016h2.378h2.373h2.372v2.219h-2.372H72.09h-2.378h-2.372
	h-2.373V0.016h2.373H69.711z M69.711,17.781h2.378h2.373h2.372V20h-2.372H72.09h-2.378h-2.372h-2.373v-2.219h2.373H69.711z"/>
<path fill="#3E3A39" d="M90.502,19.984v-2.219v-2.219v-2.223v-2.219V8.885V6.662V4.443V2.219h-2.375h-2.373h-2.377V0h2.377h2.373
	h2.375h2.375h2.373h2.377H100v2.219h-2.373H95.25h-2.373v2.224v2.219v2.223v2.219v2.219v2.223v2.219v2.219H90.502z"/>
</svg>
