<?xml version="1.0" encoding="utf-8"?>
<!-- Generator: Adobe Illustrator 14.0.0, SVG Export Plug-In . SVG Version: 6.00 Build 43363)  -->
<!DOCTYPE svg PUBLIC "-//W3C//DTD SVG 1.1//EN" "http://www.w3.org/Graphics/SVG/1.1/DTD/svg11.dtd">
<svg version="1.1" id="圖層_1" xmlns="http://www.w3.org/2000/svg" xmlns:xlink="http://www.w3.org/1999/xlink" x="0px" y="0px"
	 width="386.332px" height="82.5px" viewBox="0 0 386.332 82.5" enable-background="new 0 0 386.332 82.5" xml:space="preserve">
<path fill="#B01E24" d="M8.25,66H0v-8.25V49.5v-8.25V33v-8.25V16.5h8.25v8.25V33v8.25v8.25v8.25V66z M8.25,16.5V8.25h8.25v8.25H8.25
	z M16.5,74.25H8.25V66h8.25V74.25z M57.75,8.25H49.5h-8.25H33h-8.25H16.5V0h8.25H33h8.25h8.25h8.25V8.25z M24.75,57.75H16.5V49.5
	v-8.25V33v-8.25h8.25V33v8.25v8.25V57.75z M57.75,74.25H66v8.25h-8.25H49.5h-8.25H33h-8.25H16.5v-8.25h8.25H33h8.25h8.25H57.75z
	 M49.5,24.75h-8.25H33h-8.25V16.5H33h8.25h8.25V24.75z M41.25,57.75h8.25V66h-8.25H33h-8.25v-8.25H33H41.25z M57.75,57.75H49.5V49.5
	v-8.25V33v-8.25h8.25V33v8.25v8.25V57.75z M66,16.5h-8.25V8.25H66V16.5z M57.75,66v-8.25H66V66H57.75z M66,57.75V49.5v-8.25V33
	v-8.25V16.5h8.25v8.25V33v8.25v8.25v8.25H66z"/>
<path fill="#101D24" d="M90.353,82.5v-9.173v-9.172V54.98v-9.173v-9.172v-9.173v-9.173V9.116h9.174v9.172v9.173v9.173v9.172v9.173
	v9.173v9.172V82.5H90.353z M127.045,9.116h-9.173h-9.174h-9.172v-9.173h9.172h9.174h9.173V9.116z M127.045,45.807v-9.172v-9.173
	v-9.173V9.116h9.173v9.172v9.173v9.173v9.172H127.045z M154.564,9.116h-9.174h-9.173v-9.173h9.173h9.174V9.116z M154.564,82.5
	v-9.173v-9.172V54.98v-9.173v-9.172v-9.173v-9.173V9.116h9.172v9.172v9.173v9.173v9.172v9.173v9.173v9.172V82.5H154.564z"/>
<path fill="#101D24" d="M189.012,73.326h-9.173v-9.172V54.98v-9.173v-9.172v-9.173v-9.173V9.116h9.173v9.172v9.173v9.173h9.173
	h9.174h9.172h9.174v9.172h-9.174h-9.172h-9.174h-9.173v9.173v9.173V73.326z M225.704-0.057h9.173v9.173h-9.173h-9.174h-9.172h-9.174
	h-9.173v-9.173h9.173h9.174h9.172H225.704z M225.704,73.326h9.173V82.5h-9.173h-9.174h-9.172h-9.174h-9.173v-9.173h9.173h9.174
	h9.172H225.704z"/>
<path fill="#101D24" d="M296.844,64.211v-9.173v-9.173h-9.172h-9.174h-9.173h-9.173v-9.172h9.173h9.173h9.174h9.172v-9.173v-9.173
	V9.173h9.174v9.172v9.173v9.173v9.172v9.173v9.173v9.172h-9.174V64.211z M269.326,0h9.173h9.174h9.172v9.173h-9.172h-9.174h-9.173
	h-9.173h-9.173V0h9.173H269.326z M269.326,73.383h9.173h9.174h9.172v9.173h-9.172h-9.174h-9.173h-9.173h-9.173v-9.173h9.173H269.326
	z"/>
<path fill="#101D24" d="M349.64,82.5v-9.173v-9.172V54.98v-9.173v-9.172v-9.173v-9.173V9.116h-9.172h-9.173h-9.173v-9.173h9.173
	h9.173h9.172h9.173h9.173h9.172h9.173v9.173h-9.173h-9.172h-9.173v9.172v9.173v9.173v9.172v9.173v9.173v9.172V82.5H349.64z"/>
</svg>
