<?xml version="1.0" standalone="no"?>
<!DOCTYPE svg PUBLIC "-//W3C//DTD SVG 1.1//EN" "http://www.w3.org/Graphics/SVG/1.1/DTD/svg11.dtd" >
<svg xmlns="http://www.w3.org/2000/svg">
<metadata>Generated by IcoMoon</metadata>
<defs>
<font id="icomoon" horiz-adv-x="1024">
<font-face units-per-em="1024" ascent="960" descent="-64" />
<missing-glyph horiz-adv-x="1024" />
<glyph unicode="&#x20;" horiz-adv-x="512" d="" />
<glyph unicode="&#xe01f;" glyph-name="arrow-right-7" d="M554 682.667l364-256-364-256v512zM170 170.667v512l364-256z" />
<glyph unicode="&#xe020;" glyph-name="arrow-left-6" d="M490 426.667l364 256v-512zM470 170.667l-364 256 364 256v-512z" />
<glyph unicode="&#xe037;" glyph-name="arrow-right-8" d="M342 724.667l468-298-468-298v596z" />
<glyph unicode="&#xe0c8;" glyph-name="checkin-1" d="M512 448.667q44 0 75 31t31 75-31 75-75 31-75-31-31-75 31-75 75-31zM512 852.667q124 0 211-87t87-211q0-62-31-142t-75-150-87-131-73-97l-32-34q-12 14-32 37t-72 92-91 134-71 147-32 144q0 124 87 211t211 87z" />
<glyph unicode="&#xe0da;" glyph-name="password-1" d="M298 340.667q34 0 60 26t26 60-26 60-60 26-59-26-25-60 25-60 59-26zM540 512.667h442v-172h-86v-170h-170v170h-186q-26-76-92-123t-150-47q-106 0-181 75t-75 181 75 181 181 75q84 0 150-47t92-123z" />
<glyph unicode="&#xe0e1;" glyph-name="mail-1" d="M512 468.667l342 214h-684zM854 170.667v426l-342-212-342 212v-426h684zM854 768.667q34 0 59-26t25-60v-512q0-34-25-60t-59-26h-684q-34 0-59 26t-25 60v512q0 34 25 60t59 26h684z" />
<glyph unicode="&#xe159;" glyph-name="mail-2" d="M854 596.667v86l-342-214-342 214v-86l342-212zM854 768.667q34 0 59-26t25-60v-512q0-34-25-60t-59-26h-684q-34 0-59 26t-25 60v512q0 34 25 60t59 26h684z" />
<glyph unicode="&#xe1ad;" glyph-name="setting-1" d="M512 170.667q106 0 181 75t75 181-75 181-181 75-181-75-75-181 75-181 181-75zM854 284.667v-200h-200l-142-140-142 140h-200v200l-140 142 140 142v200h200l142 140 142-140h200v-200l140-142z" />
<glyph unicode="&#xe22b;" glyph-name="post-1" d="M0 84.667h1024v-170h-1024v170zM884 766.667l-84-84-160 160 84 84q12 12 30 12t30-12l100-100q12-12 12-30t-12-30zM758 640.667l-428-428h-160v160l428 428z" />
<glyph unicode="&#xe254;" glyph-name="post-2" d="M884 638.667l-78-78-160 160 78 78q12 12 30 12t30-12l100-100q12-12 12-30t-12-30zM128 202.667l472 472 160-160-472-472h-160v160z" />
<glyph unicode="&#xe255;" glyph-name="arrow-up-3" d="M214 340.667l298 300 298-300h-170v-256h-256v256h-170zM214 768.667h596v-86h-596v86z" />
<glyph unicode="&#xe3aa;" glyph-name="setting-2" d="M512 170.667q106 0 181 75t75 181-75 181-181 75-181-75-75-181 75-181 181-75zM854 284.667v-200h-200l-142-140-142 140h-200v200l-140 142 140 142v200h200l142 140 142-140h200v-200l140-142z" />
<glyph unicode="&#xe3ac;" glyph-name="setting-3" d="M512 596.667q70 0 120-50t50-120-50-120-120-50-120 50-50 120 50 120 120 50zM512 170.667q106 0 181 75t75 181-75 181-181 75-181-75-75-181 75-181 181-75zM854 568.667l140-142-140-142v-200h-200l-142-140-142 140h-200v200l-140 142 140 142v200h200l142 140 142-140h200v-200z" />
<glyph unicode="&#xe439;" glyph-name="camera-1" d="M418 340.667q0 58 40 98t96 40q58 0 98-40t40-98q0-56-40-96t-98-40-97 39-39 97zM554 128.667q88 0 151 62t63 150-63 151-151 63-150-63-62-151 62-150 150-62zM256 512.667v128h128v128h298l78-86h136q34 0 60-26t26-60v-512q0-34-26-59t-60-25h-682q-34 0-60 25t-26 59v428h128zM128 768.667v128h86v-128h128v-86h-128v-128h-86v128h-128v86h128z" />
<glyph unicode="&#xe5c4;" glyph-name="arrow-left-7" d="M854 468.667v-84h-520l238-240-60-60-342 342 342 342 60-60-238-240h520z" />
<glyph unicode="&#xe5c8;" glyph-name="arrow-right-9" d="M512 768.667l342-342-342-342-60 60 238 240h-520v84h520l-238 240z" />
<glyph unicode="&#xe5cf;" glyph-name="arrow-down-2" d="M708 572.667l60-60-256-256-256 256 60 60 196-196z" />
<glyph unicode="&#xe5d4;" glyph-name="more-1" d="M512 256.667q34 0 60-26t26-60-26-60-60-26-60 26-26 60 26 60 60 26zM512 512.667q34 0 60-26t26-60-26-60-60-26-60 26-26 60 26 60 60 26zM512 596.667q-34 0-60 26t-26 60 26 60 60 26 60-26 26-60-26-60-60-26z" />
<glyph unicode="&#xe7f2;" glyph-name="mood-1" d="M512 192.667q-74 0-133 41t-85 107h436q-26-66-85-107t-133-41zM362 468.667q-26 0-45 19t-19 45 19 45 45 19 45-19 19-45-19-45-45-19zM662 468.667q-26 0-45 19t-19 45 19 45 45 19 45-19 19-45-19-45-45-19zM512 84.667q140 0 241 101t101 241-101 241-241 101-241-101-101-241 101-241 241-101zM512 852.667q176 0 301-125t125-301-125-301-301-125-301 125-125 301 125 301 301 125z" />
<glyph unicode="&#xe7f4;" glyph-name="noti-2" d="M768 256.667l86-86v-42h-684v42l86 86v212q0 100 51 174t141 96v30q0 26 18 45t46 19 46-19 18-45v-30q90-22 141-96t51-174v-212zM512 0.667q-36 0-61 25t-25 59h172q0-34-26-59t-60-25z" />
<glyph unicode="&#xe7f5;" glyph-name="noti-3" d="M682 212.667v256q0 82-46 137t-124 55-124-55-46-137v-256h340zM768 256.667l86-86v-42h-684v42l86 86v212q0 100 51 174t141 96v30q0 26 18 45t46 19 46-19 18-45v-30q90-22 141-96t51-174v-212zM512 0.667q-34 0-60 25t-26 59h172q0-34-26-59t-60-25z" />
<glyph unicode="&#xe853;" glyph-name="member-1" d="M512 118.667q162 0 256 138-2 56-90 94t-166 38-166-37-90-95q94-138 256-138zM512 724.667q-52 0-90-38t-38-90 38-90 90-38 90 38 38 90-38 90-90 38zM512 852.667q176 0 301-125t125-301-125-301-301-125-301 125-125 301 125 301 301 125z" />
<glyph unicode="&#xe869;" glyph-name="edit-1" d="M968 128.667q14-8 13-27t-17-33l-98-98q-30-30-60 0l-388 388q-72-30-153-13t-141 77q-64 64-80 152t24 164l188-184 128 128-184 184q76 36 164 22t152-78q60-60 77-141t-13-153z" />
<glyph unicode="&#xe87d;" glyph-name="favorite-1" d="M512 28.667l-62 56q-106 96-154 142t-107 114-81 123-22 113q0 98 67 166t167 68q116 0 192-90 76 90 192 90 100 0 167-68t67-166q0-78-52-162t-113-146-199-186z" />
<glyph unicode="&#xe87e;" glyph-name="favorite-o-1" d="M516 146.667q96 86 142 130t100 104 75 106 21 90q0 64-43 106t-107 42q-50 0-93-28t-59-72h-80q-16 44-59 72t-93 28q-64 0-107-42t-43-106q0-44 21-90t75-106 100-104 142-130l4-4zM704 810.667q100 0 167-68t67-166q0-58-22-113t-81-123-107-114-154-142l-62-56-62 54q-138 124-199 186t-113 146-52 162q0 98 67 166t167 68q116 0 192-90 76 90 192 90z" />
<glyph unicode="&#xe8b6;" glyph-name="search-1" d="M406 340.667q80 0 136 56t56 136-56 136-136 56-136-56-56-136 56-136 136-56zM662 340.667l212-212-64-64-212 212v34l-12 12q-76-66-180-66-116 0-197 80t-81 196 81 197 197 81 196-81 80-197q0-104-66-180l12-12h34z" />
<glyph unicode="&#xe8db;" glyph-name="thumb-down-1" d="M810 810.667h172v-512h-172v512zM640 810.667q34 0 60-26t26-60v-426q0-34-26-60l-280-282-46 46q-18 18-18 44v14l42 196h-270q-34 0-60 25t-26 59l2 4h-2v82q0 16 6 32l130 300q20 52 78 52h384z" />
<glyph unicode="&#xe8dc;" glyph-name="thumb-up-1" d="M982 512.667l-2-4h2v-82q0-16-6-32l-130-300q-20-52-78-52h-384q-34 0-60 26t-26 60v426q0 34 26 60l280 282 46-46q18-18 18-44v-14l-42-196h270q34 0 60-25t26-59zM42 42.667v512h172v-512h-172z" />
<glyph unicode="&#xe900;" glyph-name="arrow-left-1" d="M128 460.8l332.8 332.8v-179.2h409.6v-307.2h-409.6v-179.2l-332.8 332.8z" />
<glyph unicode="&#xe901;" glyph-name="arrow-right-1" d="M563.2 128v179.2h-409.6v307.2h409.6v179.2l332.8-332.8-332.8-332.8z" />
<glyph unicode="&#xe902;" glyph-name="arrow-up-1" d="M512 844.8l332.8-332.8h-179.2v-409.6h-307.2v409.6h-179.2l332.8 332.8z" />
<glyph unicode="&#xe903;" glyph-name="arrow-down-1" d="M512 952.32c-271.514 0-491.571-220.058-491.571-491.52 0-271.514 220.058-491.571 491.571-491.571 271.411 0 491.52 220.058 491.52 491.571 0 271.462-220.109 491.52-491.52 491.52zM511.949 71.68c-214.886 0-389.12 174.182-389.12 389.12s174.182 389.12 389.12 389.12 389.171-174.234 389.171-389.12-174.285-389.12-389.171-389.12zM614.4 665.6h-204.8v-204.8h-128l230.4-230.4 230.4 230.4h-128v204.8z" />
<glyph unicode="&#xe904;" glyph-name="arrow-right-2" d="M512 952.32c-271.514 0-491.571-220.058-491.571-491.52 0-271.514 220.058-491.571 491.571-491.571 271.411 0 491.52 220.058 491.52 491.571 0 271.462-220.109 491.52-491.52 491.52zM511.949 71.68c-214.886 0-389.12 174.182-389.12 389.12s174.182 389.12 389.12 389.12 389.171-174.234 389.171-389.12-174.285-389.12-389.171-389.12zM512 563.2h-204.8v-204.8h204.8v-128l230.4 230.4-230.4 230.4v-128z" />
<glyph unicode="&#xe905;" glyph-name="arrow-up-2" d="M512 952.32c-271.514 0-491.571-220.058-491.571-491.52 0-271.514 220.058-491.571 491.571-491.571 271.411 0 491.52 220.058 491.52 491.571 0 271.462-220.109 491.52-491.52 491.52zM511.949 71.68c-214.886 0-389.12 174.182-389.12 389.12s174.182 389.12 389.12 389.12 389.171-174.234 389.171-389.12-174.285-389.12-389.171-389.12zM512 691.2l230.4-230.4h-128v-204.8h-204.8v204.8h-128l230.4 230.4z" />
<glyph unicode="&#xe906;" glyph-name="arrow-left-2" d="M578.662 625.869c-10.035 10.086-26.368 10.086-36.352 0l-143.718-146.688c-10.035-10.189-10.035-26.624 0-36.71l143.718-146.637c9.984-10.189 26.317-10.138 36.352 0 10.035 10.086 10.035 26.522 0 36.71l-117.862 128.256 117.862 128.307c10.035 10.138 10.035 26.522 0 36.762zM512 952.32c-271.462 0-491.52-220.058-491.52-491.52 0-271.514 220.058-491.52 491.52-491.52s491.52 220.006 491.52 491.52c0 271.462-220.058 491.52-491.52 491.52zM512 33.075c-236.288 0-427.725 191.488-427.725 427.725s191.437 427.725 427.725 427.725c236.186 0 427.725-191.488 427.725-427.725s-191.539-427.725-427.725-427.725z" />
<glyph unicode="&#xe907;" glyph-name="arrow-right-3" d="M563.2 460.8l-117.862 128.307c-10.035 10.138-10.035 26.573 0 36.762 10.035 10.086 26.368 10.086 36.352 0l143.718-146.637c10.035-10.189 10.035-26.624 0-36.71l-143.718-146.637c-9.984-10.189-26.317-10.138-36.352 0-10.035 10.086-10.035 26.522 0 36.71l117.862 128.205zM512 952.32c271.462 0 491.52-220.058 491.52-491.52 0-271.514-220.058-491.52-491.52-491.52s-491.52 220.006-491.52 491.52c0 271.462 220.058 491.52 491.52 491.52zM512 33.075c236.186 0 427.725 191.488 427.725 427.725s-191.539 427.725-427.725 427.725c-236.288 0-427.725-191.488-427.725-427.725-0.051-236.237 191.437-427.725 427.725-427.725z" />
<glyph unicode="&#xe908;" glyph-name="delete-5" d="M173.517 608.614l56.371-558.49c3.123-23.603 117.094-101.222 282.112-101.325 165.12 0.102 279.091 77.722 282.163 101.325l56.422 558.49c-86.221-48.23-215.091-71.014-338.586-71.014-123.392 0-252.314 22.784-338.483 71.014zM674.202 895.488l-43.981 48.691c-16.998 24.218-35.43 28.621-71.322 28.621h-93.747c-35.84 0-54.323-4.403-71.27-28.621l-43.981-48.691c-131.584-22.989-227.021-83.968-227.021-128.973v-8.704c0-79.206 174.234-143.411 389.12-143.411 214.938 0 389.171 64.205 389.171 143.411v8.704c0 45.005-95.386 105.984-226.97 128.973zM617.984 750.592l-54.784 68.608h-102.4l-54.682-68.608h-87.040c0 0 95.334 113.715 108.083 129.126 9.728 11.776 19.661 16.282 32.563 16.282h104.602c12.954 0 22.886-4.506 32.614-16.282 12.698-15.411 108.083-129.126 108.083-129.126h-87.040z" />
<glyph unicode="&#xe909;" glyph-name="noti-1" d="M750.080 536.986c-116.736 251.238-177.459 346.675-368.179 342.682-67.942-1.382-51.661 49.254-103.475 30.054-51.712-19.2-7.322-47.309-60.262-90.778-148.582-122.010-134.912-234.854-65.997-503.808 29.030-113.306-69.99-118.835-30.822-228.608 28.621-80.077 239.565-113.613 462.080-31.078 222.566 82.586 362.803 246.477 334.182 326.554-39.168 109.824-118.323 49.203-167.526 154.982zM559.309 123.136c-198.758-73.728-362.086-30.413-368.998-11.11-11.878 33.28 64.154 144.179 291.379 228.506s354.048 53.043 367.309 15.923c7.834-21.965-90.88-159.539-289.69-233.318zM495.411 302.029c-103.885-38.554-176.077-82.637-222.874-122.317 32.922-29.901 94.566-37.171 155.955-14.387 78.182 28.928 126.259 95.539 107.264 148.685-0.256 0.666-0.563 1.178-0.819 1.843-12.851-4.198-26.010-8.755-39.526-13.824z" />
<glyph unicode="&#xe90a;" glyph-name="camera-2" d="M512 563.2c-84.838 0-153.6-68.813-153.6-153.6s68.762-153.6 153.6-153.6c84.787 0 153.6 68.813 153.6 153.6s-68.813 153.6-153.6 153.6zM921.6 716.8h-122.88c-16.896 0-35.123 13.107-40.397 29.184l-31.795 95.283c-5.376 16.026-23.501 29.133-40.448 29.133h-348.16c-16.896 0-35.123-13.107-40.397-29.082l-31.846-95.334c-5.325-16.077-23.501-29.184-40.397-29.184h-122.88c-56.32 0-102.4-46.080-102.4-102.4v-460.8c0-56.32 46.080-102.4 102.4-102.4h819.2c56.32 0 102.4 46.080 102.4 102.4v460.8c0 56.32-46.080 102.4-102.4 102.4zM512 153.6c-141.414 0-256 114.586-256 256s114.586 256 256 256c141.363 0 256-114.586 256-256s-114.637-256-256-256zM896 552.96c-19.814 0-35.84 16.077-35.84 35.891 0 19.712 16.026 35.84 35.84 35.84s35.84-16.077 35.84-35.84c0-19.814-16.026-35.891-35.84-35.891z" />
<glyph unicode="&#xe90b;" glyph-name="delete-6" d="M512 921.6c-219.085 0-355.328-72.192-347.904-130.816l73.83-689.51c2.97-23.552 113.715-101.171 274.074-101.274 160.307 0.102 271.104 77.722 273.971 101.325l73.83 689.51c7.424 58.573-128.717 130.765-347.802 130.765zM512 701.901c-160.358 0.102-274.074 57.19-274.074 78.592-0.051 21.197 113.766 78.387 274.074 78.285 160.307 0.102 274.125-57.088 273.971-78.285 0-21.402-113.664-78.49-273.971-78.592z" />
<glyph unicode="&#xe90c;" glyph-name="password-2" d="M905.779 730.88c-25.754 152.422-164.864 254.31-310.733 227.379-145.92-26.88-269.107-144.179-243.354-296.704 5.478-32.819 20.89-84.173 39.066-121.088l-264.96-395.418c-9.779-14.592-15.309-40.909-12.39-58.419l17.050-100.915c2.97-17.51 19.046-29.286 35.84-26.317l77.619 14.387c16.794 3.021 38.093 17.818 47.309 32.717l104.806 169.523 0.922 1.126 70.963 13.107 122.368 198.605c40.192-7.117 97.894-4.71 131.994 1.587 145.818 26.931 209.254 187.904 183.501 340.429zM776.499 652.698c-40.141-59.904-81.101-17.715-138.394 24.32-57.293 41.882-109.312 67.686-69.222 127.59 40.141 59.904 119.091 74.496 176.486 32.512 57.344-41.933 71.219-124.518 31.13-184.422z" />
<glyph unicode="&#xe90d;" glyph-name="lock-1" d="M808.96 563.2h-92.16v122.88c0 148.326-68.352 235.52-204.8 235.52-136.499 0-204.8-87.194-204.8-235.52v-122.88h-102.4c-28.314 0-51.2-33.075-51.2-61.389v-399.411c0-28.109 21.914-58.317 48.691-66.918l61.286-19.814c26.829-8.55 71.782-15.667 99.942-15.667h296.96c28.109 0 73.114 7.117 99.891 15.718l61.235 19.814c26.829 8.55 48.794 38.758 48.794 66.867v399.411c0 28.314-33.178 61.389-61.44 61.389zM614.4 563.2h-204.8v143.411c0 73.984 40.806 112.589 102.4 112.589s102.4-38.605 102.4-112.589v-143.411z" />
<glyph unicode="&#xe90e;" glyph-name="logout-1" d="M972.8 460.8l-307.2 256v-153.6h-358.4v-204.8h358.4v-153.6l307.2 256zM153.6 819.2h409.6v102.4h-409.6c-56.32 0-102.4-46.080-102.4-102.4v-716.8c0-56.32 46.080-102.4 102.4-102.4h409.6v102.4h-409.6v716.8z" />
<glyph unicode="&#xe90f;" glyph-name="login-1" d="M716.8 460.8l-307.2 256v-153.6h-358.4v-204.8h358.4v-153.6l307.2 256zM870.4 102.4h-409.6v-102.4h409.6c56.32 0 102.4 46.080 102.4 102.4v716.8c0 56.32-46.080 102.4-102.4 102.4h-409.6v-102.4h409.6v-716.8z" />
<glyph unicode="&#xe910;" glyph-name="mail-3" d="M80.589 702.157c24.986-13.414 371.098-199.373 384-206.285s29.594-10.189 46.387-10.189c16.794 0 33.485 3.277 46.387 10.189s359.014 192.87 384 206.285c25.037 13.466 48.691 65.843 2.765 65.843h-866.253c-45.926 0-22.272-52.378 2.714-65.843zM952.986 589.363c-28.416-14.797-378.214-197.069-395.622-206.182s-29.594-10.189-46.387-10.189-28.979 1.075-46.387 10.189-365.21 191.437-393.626 206.234c-19.968 10.445-19.763-1.792-19.763-11.213s0-373.402 0-373.402c0-21.504 28.979-51.2 51.2-51.2h819.2c22.221 0 51.2 29.696 51.2 51.2 0 0 0 363.93 0 373.35s0.205 21.658-19.814 11.213z" />
<glyph unicode="&#xe911;" glyph-name="edit-2" d="M930.509 879.309c-56.422 56.422-106.598 39.782-106.598 39.782l-442.317-441.958-74.394-221.133 221.030 74.445 442.061 442.266c0 0 16.589 50.176-39.782 106.598zM542.976 378.624l-24.115-24.064-75.418-25.6c-5.325 12.288-11.981 24.422-25.498 37.888-13.517 13.517-25.6 20.173-37.888 25.498l25.6 75.418 24.115 24.064c0 0 39.731 4.557 78.694-34.458 39.014-38.963 34.509-78.746 34.509-78.746zM819.2 102.4h-665.6v665.6h256l102.4 102.4h-358.4c-56.32 0-102.4-46.080-102.4-102.4v-665.6c0-56.32 46.080-102.4 102.4-102.4h665.6c56.32 0 102.4 46.080 102.4 102.4v358.4l-102.4-102.4v-256z" />
<glyph unicode="&#xe912;" glyph-name="thumb-down-2" d="M325.222 325.734c6.81-18.227-181.197-186.061-71.526-322.099 25.651-31.795 112.691 152.32 236.288 235.622 68.147 46.029 226.816 143.923 226.816 198.042v350.31c0 65.075-251.597 133.99-442.778 133.99-70.093 0-171.622-439.091-171.622-508.877 0-69.99 216.115-68.762 222.822-86.989zM768 330.598c33.69 0 153.6 20.48 153.6 159.898v248.218c0 139.315-119.91 154.675-153.6 154.675-33.638 0 51.2-29.286 51.2-115.712v-326.298c0-90.522-84.838-120.781-51.2-120.781z" />
<glyph unicode="&#xe913;" glyph-name="thumb-up-2" d="M698.778 595.866c-6.81 18.176 181.197 186.061 71.578 322.099-25.651 31.795-112.691-152.32-236.288-235.674-68.198-45.978-226.867-143.872-226.867-197.99v-350.31c0-65.075 251.597-133.99 442.778-133.99 70.093 0 171.622 439.091 171.622 508.826 0 70.042-216.115 68.813-222.822 87.040zM256 591.002c-33.69 0-153.6-20.48-153.6-159.898v-248.218c0-139.315 119.91-154.675 153.6-154.675 33.638 0-51.2 29.286-51.2 115.712v326.298c0 90.522 84.838 120.781 51.2 120.781z" />
<glyph unicode="&#xe914;" glyph-name="facebook-2" d="M870.4 921.6h-716.8c-56.32 0-102.4-46.080-102.4-102.4v-716.8c0-56.371 46.080-102.4 102.4-102.4h358.4v358.4h-102.4v126.72h102.4v104.96c0 110.797 62.054 188.621 192.819 188.621l92.314-0.102v-133.376h-61.286c-50.893 0-70.246-38.195-70.246-73.626v-86.528h131.482l-29.082-126.669h-102.4v-358.4h204.8c56.32 0 102.4 46.029 102.4 102.4v716.8c0 56.32-46.080 102.4-102.4 102.4z" />
<glyph unicode="&#xe915;" glyph-name="github-2" d="M512.768 463.411c0 0-0.512 0-0.768 0h-0.768c-60.979 0-114.688 15.514-146.483-13.722-18.995-17.51-26.982-38.605-26.982-61.286 0-94.822 75.93-106.496 173.517-106.496h1.485c97.536 0 173.517 11.725 173.517 106.496 0 22.682-7.987 43.827-26.982 61.286-31.846 29.235-85.555 13.722-146.534 13.722zM429.722 333.824c-18.586 0-33.587 20.89-33.587 46.592s15.002 46.49 33.587 46.49c18.586 0 33.638-20.787 33.638-46.49 0.051-25.702-15.002-46.592-33.638-46.592zM594.227 333.824c-18.586 0-33.638 20.89-33.638 46.592s15.053 46.49 33.638 46.49c18.534 0 33.587-20.787 33.587-46.49 0.051-25.702-15.002-46.592-33.587-46.592zM512 952.32c-271.462 0-491.52-220.058-491.52-491.52s220.058-491.52 491.52-491.52 491.52 220.058 491.52 491.52-220.058 491.52-491.52 491.52zM556.851 259.123c-8.806 0-26.317 0-44.851-0.102-18.534 0.102-36.045 0.102-44.851 0.102-38.912 0-193.126 3.021-193.126 188.877 0 42.701 14.643 73.984 38.656 100.096-3.789 9.421-3.994 63.078 16.384 114.483 0 0 46.899-5.12 117.811-53.811 14.797 4.147 39.987 6.246 65.126 6.246s50.278-2.099 65.178-6.195c70.912 48.691 117.811 53.811 117.811 53.811 20.378-51.405 20.224-105.114 16.384-114.483 24.013-26.112 38.656-57.395 38.656-100.096-0.051-185.958-154.266-188.928-193.178-188.928z" />
<glyph unicode="&#xe916;" glyph-name="github-3" d="M674.816 393.779c-36.762 0-66.56-41.318-66.56-92.109 0-50.893 29.798-92.211 66.56-92.211s66.56 41.318 66.56 92.211c-0.051 50.79-29.798 92.109-66.56 92.109zM906.547 633.549c7.629 18.688 7.936 124.877-32.512 226.611 0 0-92.723-10.189-233.011-106.496-29.44 8.192-79.258 12.186-128.973 12.186-49.818 0-99.584-3.994-129.024-12.186-140.339 96.307-233.062 106.496-233.062 106.496-40.397-101.734-39.987-207.923-32.461-226.611-47.514-51.61-76.544-113.613-76.544-198.195 0-367.923 305.306-373.811 382.31-373.811 17.51 0 52.122-0.102 88.781-0.102 36.608 0 71.27 0.102 88.678 0.102 77.107 0 382.31 5.888 382.31 373.811 0 84.582-28.979 146.586-76.493 198.195zM513.434 106.752h-2.867c-193.075 0-343.501 22.989-343.501 210.688 0 45.005 15.872 86.682 53.606 121.293 62.822 57.702 169.216 27.187 289.894 27.187 0.512 0 1.024 0 1.485 0 0.512 0 0.922 0 1.382 0 120.678 0 227.123 30.515 289.997-27.187 37.632-34.611 53.504-76.288 53.504-121.293 0-187.699-150.374-210.688-343.501-210.688zM349.235 393.779c-36.762 0-66.56-41.318-66.56-92.109 0-50.893 29.798-92.211 66.56-92.211 36.813 0 66.611 41.318 66.611 92.211 0 50.79-29.798 92.109-66.611 92.109z" />
<glyph unicode="&#xe917;" glyph-name="g-plus-2" d="M101.837 686.643c0-76.493 25.549-131.686 75.878-164.096 41.267-26.624 89.088-30.618 113.971-30.618 6.042 0 10.906 0.307 14.285 0.512 0 0-7.885-51.405 30.208-102.195h-1.741c-65.997 0-281.242-13.773-281.242-190.822 0-180.019 197.683-189.184 237.363-189.184 3.123 0 4.966 0.102 4.966 0.102 0.41 0 3.226-0.102 8.090-0.102 25.446 0 91.238 3.174 152.32 32.922 79.258 38.4 119.45 105.421 119.45 198.912 0 90.317-61.235 144.077-105.933 183.398-27.29 24.013-50.893 44.698-50.893 64.819 0 20.48 17.254 35.891 39.014 55.398 35.277 31.488 68.557 76.39 68.557 161.28 0 74.598-9.677 124.723-69.325 156.518 6.195 3.174 28.211 5.478 39.066 7.014 32.307 4.403 79.565 9.421 79.565 35.789v5.069h-235.469c-2.355-0.102-238.131-8.806-238.131-224.717zM481.946 225.178c4.506-71.987-57.088-125.082-149.606-131.789-93.952-6.912-171.264 35.379-175.77 107.315-2.202 34.611 13.005 68.403 42.752 95.386 30.157 27.29 71.578 44.186 116.634 47.514 5.325 0.307 10.598 0.614 15.872 0.614 86.989-0.051 145.869-51.149 150.118-119.040zM420.454 735.949c23.091-81.306-11.776-166.195-67.379-181.914-6.4-1.792-12.954-2.662-19.661-2.662-50.893 0-101.325 51.507-120.064 122.522-10.445 39.731-9.574 74.65 2.406 108.134 11.725 33.024 32.922 55.194 59.546 62.72 6.4 1.792 13.005 2.714 19.712 2.714 61.44 0 100.966-25.498 125.44-111.514zM819.2 563.2v153.6h-102.4v-153.6h-153.6v-102.4h153.6v-153.6h102.4v153.6h153.6v102.4h-153.6z" />
<glyph unicode="&#xe918;" glyph-name="twitter-3" d="M512 952.32c-271.462 0-491.52-220.058-491.52-491.52s220.058-491.52 491.52-491.52 491.52 220.058 491.52 491.52-220.058 491.52-491.52 491.52zM711.936 549.683c0.205-4.198 0.256-8.397 0.256-12.493 0-128-97.331-275.507-275.405-275.507-54.682 0-105.574 15.974-148.378 43.52 7.526-0.922 15.258-1.28 23.091-1.28 45.363 0 87.091 15.411 120.218 41.421-42.342 0.819-78.080 28.774-90.419 67.174 5.888-1.075 11.93-1.69 18.176-1.69 8.806 0 17.408 1.178 25.498 3.379-44.288 8.909-77.67 48.026-77.67 94.925v1.178c13.056-7.219 28.006-11.622 43.878-12.134-26.010 17.408-43.059 47.002-43.059 80.64 0 17.715 4.762 34.406 13.107 48.691 47.77-58.573 119.040-97.075 199.526-101.222-1.69 7.117-2.509 14.49-2.509 22.118 0 53.402 43.315 96.819 96.819 96.819 27.802 0 52.992-11.776 70.656-30.618 22.067 4.403 42.752 12.39 61.44 23.501-7.219-22.579-22.528-41.574-42.547-53.606 19.61 2.406 38.246 7.578 55.603 15.309-12.954-19.405-29.389-36.506-48.282-50.125z" />
<glyph unicode="&#xe919;" glyph-name="twitter-2" d="M886.579 653.005c0.41-8.294 0.563-16.691 0.563-24.986 0-255.488-194.406-549.99-549.888-549.99-109.21 0-210.739 32-296.294 86.886 15.155-1.792 30.515-2.714 46.080-2.714 90.624 0 173.926 30.925 240.026 82.688-84.531 1.587-155.955 57.395-180.531 134.195 11.776-2.202 23.91-3.379 36.352-3.379 17.664 0 34.765 2.304 50.944 6.707-88.422 17.818-155.034 95.898-155.034 189.594 0 0.819 0 1.587 0 2.406 26.061-14.49 55.91-23.194 87.552-24.218-51.866 34.714-86.016 93.798-86.016 160.922 0 35.379 9.523 68.608 26.214 97.178 95.283-116.992 237.773-193.894 398.387-201.984-3.277 14.182-4.966 28.877-4.966 44.083 0 106.701 86.477 193.178 193.229 193.178 55.603 0 105.83-23.398 141.107-60.979 43.981 8.704 85.35 24.781 122.726 46.899-14.438-45.107-45.107-82.995-84.992-106.906 39.117 4.71 76.288 15.002 111.002 30.413-25.907-38.81-58.675-72.806-96.461-99.994z" />
<glyph unicode="&#xe91a;" glyph-name="logout-2" d="M960 512c-35.376 0-64-28.656-64-64v-384h-768v384c0 35.344-28.624 64-64 64s-64-28.656-64-64v-448c0-35.344 28.624-64 64-64h896c35.376 0 64 28.656 64 64v448c0 35.344-28.624 64-64 64zM448 320c0-35.344 28.624-64 64-64s64 28.656 64 64v384h192l-256 256-256-256h192v-384z" />
<glyph unicode="&#xe91b;" glyph-name="login-2" d="M960 512c-35.376 0-64-28.656-64-64v-384h-768v384c0 35.344-28.624 64-64 64s-64-28.656-64-64v-448c0-35.344 28.624-64 64-64h896c35.376 0 64 28.656 64 64v448c0 35.344-28.624 64-64 64zM576 512v391.818c0 31.026-28.624 56.182-64 56.182s-64-25.156-64-56.182v-391.818h-192l256-256 256 256h-192z" />
<glyph unicode="&#xe91c;" glyph-name="search-2" d="M995.828-35.826c-37.566-37.564-98.45-37.564-136.016 0l-169.726 169.726c-69.776-44.764-152.26-71.434-241.318-71.434-247.83 0-448.768 200.908-448.768 448.768s200.938 448.766 448.768 448.766c247.862 0 448.768-200.904 448.768-448.766 0-89.028-26.704-171.542-71.436-241.352l169.728-169.726c37.562-37.564 37.562-98.418 0-135.982zM448.768 831.782c-177.022 0-320.548-143.494-320.548-320.546s143.526-320.548 320.548-320.548c177.052 0 320.548 143.496 320.548 320.548s-143.496 320.546-320.548 320.546z" />
<glyph unicode="&#xe91d;" glyph-name="chat-2" horiz-adv-x="1152" d="M480 832c-50.666 0-99.582-7.95-145.386-23.628-42.924-14.694-81.114-35.436-113.502-61.646-60.044-48.59-93.112-110.802-93.112-175.174 0-35.99 10.066-70.948 29.92-103.898 20.686-34.34 51.898-65.794 90.26-90.958 30.44-19.968 50.936-51.952 56.362-87.95 0.902-5.99 1.63-12.006 2.18-18.032 2.722 2.52 5.424 5.114 8.114 7.794 24.138 24.040 56.688 37.312 90.322 37.312 5.348 0 10.718-0.336 16.094-1.018 19.36-2.452 39.124-3.696 58.748-3.696 50.666 0 99.58 7.948 145.384 23.628 42.926 14.692 81.116 35.434 113.504 61.644 60.046 48.59 93.112 110.802 93.112 175.174s-33.066 126.582-93.112 175.174c-32.388 26.212-70.578 46.952-113.504 61.646-45.804 15.678-94.718 23.628-145.384 23.628zM480 960v0c265.096 0 480-173.914 480-388.448s-214.904-388.448-480-388.448c-25.458 0-50.446 1.62-74.834 4.71-103.106-102.694-222.172-121.108-341.166-123.814v25.134c64.252 31.354 116 88.466 116 153.734 0 9.106-0.712 18.048-2.030 26.794-108.558 71.214-177.97 179.988-177.97 301.89 0 214.534 214.904 388.448 480 388.448zM996 89.314c0-55.942 36.314-104.898 92-131.772v-21.542c-103.126 2.318-197.786 18.102-287.142 106.126-21.14-2.65-42.794-4.040-64.858-4.040-95.47 0-183.408 25.758-253.614 69.040 144.674 0.506 281.26 46.854 384.834 130.672 52.208 42.252 93.394 91.826 122.414 147.348 30.766 58.866 46.366 121.582 46.366 186.406 0 10.448-0.45 20.836-1.258 31.168 72.57-59.934 117.258-141.622 117.258-231.676 0-104.488-60.158-197.722-154.24-258.764-1.142-7.496-1.76-15.16-1.76-22.966z" />
<glyph unicode="&#xe91e;" glyph-name="password-3" d="M704 960c-176.73 0-320-143.268-320-320 0-20.026 1.858-39.616 5.376-58.624l-389.376-389.376v-192c0-35.346 28.654-64 64-64h64v64h128v128h128v128h128l83.042 83.042c34.010-12.316 70.696-19.042 108.958-19.042 176.73 0 320 143.268 320 320s-143.27 320-320 320zM799.874 639.874c-53.020 0-96 42.98-96 96s42.98 96 96 96 96-42.98 96-96-42.98-96-96-96z" />
<glyph unicode="&#xe91f;" glyph-name="mood-2" d="M512 960c-282.77 0-512-229.228-512-512 0-282.77 229.228-512 512-512 282.77 0 512 229.23 512 512 0 282.772-229.23 512-512 512zM704 704c35.346 0 64-42.98 64-96s-28.654-96-64-96-64 42.98-64 96 28.654 96 64 96zM352 647.938c59.646 0 102-22.332 102-57.282 0-7.398 3.812-42.994-0.17-49.594-14.828 24.576-54.81 42.188-101.83 42.188s-87.002-17.612-101.83-42.188c-3.982 6.6-0.17 42.196-0.17 49.594 0 34.95 42.354 57.282 102 57.282zM500.344 128c-119.242 0-223.858 64.28-282.892 160.952 70.41-55.060 194.534-65.81 325.288-39.978 140.248 27.706 249.11 91.542 288.454 176.594-21.654-167.96-161.518-297.568-330.85-297.568z" />
<glyph unicode="&#xe920;" glyph-name="github-5" d="M512.008 947.358c-282.738 0-512.008-229.218-512.008-511.998 0-226.214 146.704-418.132 350.136-485.836 25.586-4.738 34.992 11.11 34.992 24.632 0 12.204-0.48 52.542-0.696 95.324-142.448-30.976-172.504 60.41-172.504 60.41-23.282 59.176-56.848 74.916-56.848 74.916-46.452 31.778 3.51 31.124 3.51 31.124 51.4-3.61 78.476-52.766 78.476-52.766 45.672-78.27 119.776-55.64 149.004-42.558 4.588 33.086 17.852 55.68 32.506 68.464-113.73 12.942-233.276 56.85-233.276 253.032 0 55.898 20.004 101.574 52.76 137.428-5.316 12.9-22.854 64.972 4.952 135.5 0 0 43.006 13.752 140.84-52.49 40.836 11.348 84.636 17.036 128.154 17.234 43.502-0.198 87.336-5.886 128.256-17.234 97.734 66.244 140.656 52.49 140.656 52.49 27.872-70.528 10.35-122.6 5.036-135.5 32.82-35.856 52.694-81.532 52.694-137.428 0-196.654-119.778-239.95-233.79-252.624 18.364-15.89 34.724-47.046 34.724-94.812 0-68.508-0.596-123.644-0.596-140.508 0-13.628 9.222-29.594 35.172-24.566 203.322 67.776 349.842 259.626 349.842 485.768 0 282.78-229.234 511.998-511.992 511.998z" />
<glyph unicode="&#xe921;" glyph-name="github-4" d="M512 960c-282.77 0-512-229.23-512-512s229.23-512 512-512 512 229.23 512 512-229.23 512-512 512zM816.056 143.944c-39.518-39.516-85.512-70.532-136.708-92.186-13.006-5.5-26.214-10.328-39.6-14.492v76.734c0 40.334-13.834 70-41.5 89 17.334 1.666 33.25 4 47.75 7s29.834 7.334 46 13 30.666 12.416 43.5 20.25 25.166 18 37 30.5 21.75 26.666 29.75 42.5 14.334 34.834 19 57 7 46.584 7 73.25c0 51.666-16.834 95.666-50.5 132 15.334 40 13.666 83.5-5 130.5l-12.5 1.5c-8.666 1-24.25-2.666-46.75-11s-47.75-22-75.75-41c-39.666 11-80.834 16.5-123.5 16.5-43 0-84-5.5-123-16.5-17.666 12-34.416 21.916-50.25 29.75s-28.5 13.166-38 16-18.334 4.584-26.5 5.25-13.416 0.834-15.75 0.5-4-0.666-5-1c-18.666-47.334-20.334-90.834-5-130.5-33.666-36.334-50.5-80.334-50.5-132 0-26.666 2.334-51.084 7-73.25s11-41.166 19-57 17.916-30 29.75-42.5 24.166-22.666 37-30.5 27.334-14.584 43.5-20.25 31.5-10 46-13 30.416-5.334 47.75-7c-27.334-18.666-41-48.334-41-89v-78.23c-15.098 4.494-29.98 9.804-44.6 15.988-51.194 21.654-97.188 52.67-136.706 92.186-39.516 39.518-70.534 85.512-92.186 136.708-22.398 52.958-33.756 109.262-33.756 167.348s11.358 114.39 33.758 167.35c21.654 51.194 52.67 97.188 92.186 136.706s85.512 70.534 136.706 92.186c52.96 22.4 109.264 33.758 167.35 33.758s114.39-11.358 167.35-33.758c51.196-21.654 97.19-52.67 136.708-92.186 39.516-39.516 70.532-85.512 92.186-136.706 22.398-52.96 33.756-109.264 33.756-167.35s-11.358-114.39-33.758-167.35c-21.654-51.194-52.67-97.19-92.186-136.706z" />
<glyph unicode="&#xe922;" glyph-name="member-2" d="M856 852.667q124-130 124-301t-124-295l-70 68q88 102 88 233t-88 227zM716 710.667q64-70 64-158t-64-152l-72 72q28 38 28 83t-28 83zM384 298.667q108 0 225-47t117-123v-86h-684v86q0 76 117 123t225 47zM214 554.667q0 70 50 120t120 50 120-50 50-120-50-120-120-50-120 50-50 120z" />
<glyph unicode="&#xe923;" glyph-name="cancel-1" d="M512 960c-281.6 0-512-230.4-512-512s230.4-512 512-512 512 230.4 512 512-230.4 512-512 512zM768 263.68l-71.68-71.68-184.32 184.32-184.32-184.32-71.68 71.68 184.32 184.32-184.32 184.32 71.68 71.68 184.32-184.32 184.32 184.32 71.68-71.68-184.32-184.32 184.32-184.32z" />
<glyph unicode="&#xe924;" glyph-name="cancel-2" d="M512.003 960c-282.319 0-512.003-229.684-512.003-512.003s229.684-512.003 512.003-512.003 512.003 229.684 512.003 512.003-229.69 512.003-512.003 512.003zM512.003 23.767c-233.916 0-424.23 190.314-424.23 424.23s190.314 424.23 424.23 424.23 424.23-190.314 424.23-424.23-190.32-424.23-424.23-424.23zM710.116 646.087c-17.143 17.143-44.941 17.143-62.055 0l-136.058-136.076-136.058 136.076c-17.143 17.143-44.912 17.143-62.055 0s-17.143-44.912 0-62.055l136.058-136.070-136.064-136.076c-17.143-17.143-17.143-44.912 0-62.055 8.569-8.569 19.8-12.859 31.030-12.859s22.474 4.284 31.030 12.859l136.058 136.070 136.058-136.070c8.569-8.569 19.8-12.859 31.030-12.859s22.456 4.284 31.030 12.859c17.143 17.143 17.143 44.912 0 62.055l-136.064 136.070 136.058 136.070c17.143 17.143 17.143 44.918 0 62.061z" />
<glyph unicode="&#xe925;" glyph-name="delete-1" d="M809.054 837.316h-159.394c-7.951 68.948-66.613 122.684-137.661 122.684-71.045 0-129.699-53.733-137.65-122.684h-159.402c-64.506 0-116.978-52.487-116.978-116.991v-6.003c0-49.293 30.693-91.484 73.93-108.675v-552.657c0-64.506 52.479-116.991 116.98-116.991h446.245c64.503 0 116.978 52.49 116.978 116.991v552.655c43.235 17.193 73.93 59.384 73.93 108.675v6.003c0 64.506-52.477 116.993-116.978 116.993zM511.999 904.518c40.408 0 74.136-28.963 81.599-67.201h-163.183c7.461 38.241 41.191 67.201 81.584 67.201zM796.619 52.991c0-33.915-27.594-61.511-61.498-61.511h-446.245c-33.904 0-61.498 27.598-61.498 61.511v544.341h569.241v-544.341zM870.549 714.323c0-33.915-27.594-61.511-61.498-61.511h-594.105c-33.904 0-61.498 27.596-61.498 61.511v6.003c0 33.915 27.594 61.511 61.498 61.511h594.107c33.904 0 61.498-27.596 61.498-61.511v-6.003zM363.269 62.434c15.321 0 27.74 12.424 27.74 27.738v312.348c0 15.317-12.421 27.742-27.74 27.742s-27.74-12.426-27.74-27.742v-312.348c-0.002-15.319 12.419-27.738 27.74-27.738zM511.999 62.434c15.321 0 27.742 12.424 27.742 27.738v312.348c0 15.317-12.426 27.742-27.742 27.742-15.319 0-27.74-12.426-27.74-27.742v-312.348c0-15.319 12.419-27.738 27.74-27.738zM660.729 62.434c15.319 0 27.738 12.424 27.738 27.738v312.348c0 15.317-12.421 27.742-27.738 27.742-15.323 0-27.742-12.426-27.742-27.742v-312.348c-0.002-15.319 12.424-27.738 27.742-27.738z" />
<glyph unicode="&#xe926;" glyph-name="delete-2" d="M846.89 839.425h-136.723v88.846c0 17.883-14.425 31.729-32.307 31.729-1.735 0-2.892-0.579-3.457-1.157-0.579 0.578-1.736 1.157-2.314 1.157h-325.95c-17.882 0-31.728-13.846-31.728-31.729v-88.847h-137.301c-39.236 0-69.808-30.572-69.808-69.808v-114.225h60.576v-650.162c0-39.237 29.994-69.23 69.23-69.23h549.785c39.236 0 69.806 29.993 69.806 69.23v650.162h59.998v114.225c0 39.236-30.584 69.809-69.808 69.809zM377.868 896.543h268.265v-57.118h-268.265v57.118zM792.665 5.227c0-4.048-1.735-5.77-5.772-5.77h-549.785c-4.036 0-5.772 1.723-5.772 5.77v650.165h561.328v-650.165zM852.663 718.849h-681.326v50.768c0 4.038 1.735 6.351 5.772 6.351h669.782c4.038 0 5.773-2.313 5.773-6.351v-50.768zM628.249 580.968h64.035v-524.973h-64.035v524.973zM480.561 580.968h64.035v-524.973h-64.035v524.973zM332.871 580.968h64.035v-524.973h-64.035v524.973z" />
<glyph unicode="&#xe927;" glyph-name="delete-3" d="M193.581-64c159.208 0 477.747 0 636.957 0 13.128 0 23.869 10.741 23.869 23.869 0 165.534 0 662.139 0 662.139h-684.696c0 0 0-496.605 0-662.139 0-13.248 10.622-23.869 23.869-23.869zM649.488 493.591c0 21.483 17.425 39.027 39.027 39.027h0.834c21.483 0 39.027-17.425 39.027-39.027v-429.292c0-21.483-17.425-39.025-39.027-39.025h-0.834c-21.483 0-39.027 17.425-39.027 39.025v429.292zM472.615 493.591c0 21.483 17.425 39.027 39.027 39.027h0.835c21.483 0 39.025-17.425 39.025-39.027v-429.292c0-21.483-17.425-39.025-39.025-39.025h-0.835c-21.483 0-39.027 17.425-39.027 39.025v429.292zM295.743 493.591c0 21.483 17.426 39.027 39.027 39.027h0.835c21.483 0 39.027-17.425 39.027-39.027v-429.292c0-21.483-17.426-39.025-39.027-39.025h-0.835c-21.483 0-39.027 17.425-39.027 39.025v429.292zM664.645 846.62v53.706c0 32.94-26.734 59.674-59.674 59.674h-185.943c-32.94 0-59.674-26.734-59.674-59.674v-53.706h47.739v41.772c0 13.128 10.741 23.869 23.869 23.869h161.954c13.128 0 23.869-10.741 23.869-23.869v-41.772h47.858zM139.875 775.012v-81.395c0-13.128 10.741-23.869 23.869-23.869h696.511c13.128 0 23.869 10.741 23.869 23.869v81.395c0 13.128-10.741 23.869-23.869 23.869h-696.511c-13.128 0-23.869-10.622-23.869-23.869z" />
<glyph unicode="&#xe928;" glyph-name="setting-4" d="M1020.781 504.851c-1.619 14.394-18.402 25.211-32.915 25.211-46.92 0-88.556 27.55-106.018 70.158-17.839 43.64-6.336 94.534 28.632 126.611 11.007 10.062 12.344 26.906 3.113 38.607-24.015 30.495-51.31 58.042-81.112 81.915-11.67 9.365-28.792 8.062-38.912-3.143-30.518-33.799-85.337-46.36-127.697-28.686-44.082 18.543-71.88 63.212-69.159 111.161 0.895 15.061-10.112 28.156-25.127 29.905-38.245 4.423-76.825 4.561-115.185 0.305-14.844-1.638-25.851-14.425-25.352-29.295 1.669-47.477-26.464-91.364-70.108-109.241-41.853-17.096-96.287-4.641-126.744 28.857-10.066 11.034-26.91 12.39-38.637 3.25-30.686-24.076-58.594-51.645-82.83-81.889-9.453-11.758-8.062-28.8 3.056-38.916 35.635-32.271 47.141-83.607 28.628-127.75-17.675-42.085-61.376-69.209-111.405-69.209-16.234 0.522-27.798-10.375-29.573-25.135-4.503-38.466-4.557-77.66-0.221-116.438 1.608-14.455 18.902-25.177 33.574-25.177 44.585 1.139 87.39-26.464 105.347-70.162 17.899-43.64 6.393-94.504-28.628-126.607-10.954-10.062-12.344-26.88-3.113-38.58 23.79-30.301 51.089-57.874 80.997-81.946 11.731-9.453 28.8-8.119 38.969 3.086 30.633 33.883 85.447 46.421 127.639 28.712 44.192-18.486 71.99-63.151 69.27-111.127-0.888-15.069 10.173-28.187 25.127-29.909 19.564-2.282 39.247-3.421 58.983-3.421 18.734 0 37.472 1.029 56.205 3.113 14.848 1.638 25.847 14.425 25.348 29.322-1.718 47.45 26.464 91.338 70.051 109.184 42.135 17.21 96.34 4.614 126.801-28.849 10.123-11.011 26.849-12.341 38.641-3.231 30.629 24.018 58.48 51.565 82.83 81.893 9.449 11.731 8.115 28.8-3.059 38.912-35.635 32.271-47.199 83.615-28.686 127.727 17.404 41.525 59.482 69.407 104.741 69.407l6.332-0.164c14.68-1.193 28.187 10.116 29.966 25.1 4.511 38.5 4.564 77.66 0.229 116.438zM512.81 276.136c-94.176 0-170.78 76.604-170.78 170.78 0 94.172 76.604 170.78 170.78 170.78 94.172 0 170.777-76.608 170.777-170.78 0-94.176-76.604-170.78-170.777-170.78z" />
<glyph unicode="&#xe929;" glyph-name="github-1" d="M955.312 692.475c-45.784 78.446-107.887 140.551-186.326 186.331-78.45 45.782-164.095 68.667-256.994 68.667-92.888 0-178.56-22.892-256.994-68.667-78.446-45.777-140.547-107.885-186.331-186.331-45.777-78.443-68.667-164.104-68.667-256.98 0-111.565 32.55-211.887 97.665-300.992 65.108-89.112 149.219-150.774 252.324-184.993 12.002-2.228 20.886-0.661 26.663 4.661 5.779 5.328 8.665 12.002 8.665 19.992 0 1.333-0.114 13.328-0.336 35.998-0.229 22.67-0.336 42.447-0.336 59.322l-15.334-2.653c-9.777-1.791-22.11-2.55-37-2.335-14.883 0.208-30.334 1.768-46.331 4.668-16.004 2.874-30.889 9.541-44.668 19.985-13.772 10.444-23.548 24.116-29.327 40.993l-6.666 15.341c-4.443 10.213-11.439 21.559-20.996 33.995-9.557 12.448-19.221 20.886-28.998 25.33l-4.668 3.341c-3.11 2.221-5.996 4.899-8.665 8.007-2.667 3.108-4.663 6.218-5.996 9.333-1.336 3.117-0.229 5.674 3.332 7.68s9.996 2.979 19.334 2.979l13.328-1.992c8.889-1.782 19.885-7.103 33-15.997 13.109-8.887 23.884-20.44 32.33-34.656 10.227-18.227 22.549-32.115 37-41.672 14.439-9.557 28.998-14.327 43.662-14.327s27.329 1.111 37.999 3.323c10.659 2.223 20.66 5.564 29.997 10.005 4 29.79 14.89 52.675 32.662 68.672-25.33 2.662-48.103 6.671-68.331 12.002-20.216 5.338-41.107 14-62.659 26.012-21.563 11.995-39.452 26.89-53.669 44.659-14.22 17.778-25.89 41.119-34.994 70-9.109 28.893-13.664 62.222-13.664 99.998 0 53.786 17.559 99.556 52.67 137.336-16.448 40.437-14.895 85.768 4.663 135.989 12.889 4.004 32.003 0.999 57.333-8.997 25.334-10.001 43.883-18.568 55.666-25.671 11.782-7.101 21.223-13.118 28.335-17.998 41.341 11.551 84.003 17.328 127.999 17.328s86.667-5.777 128.010-17.328l25.332 15.992c17.323 10.671 37.78 20.45 61.321 29.339 23.555 8.885 41.567 11.332 54.017 7.327 19.992-50.223 21.774-95.552 5.321-135.989 35.109-37.78 52.675-83.562 52.675-137.336 0-37.775-4.572-71.21-13.667-100.324-9.106-29.119-20.877-52.436-35.316-70-14.456-17.561-32.458-32.339-54.010-44.332-21.556-12.002-42.454-20.665-62.671-26.002-20.226-5.338-42.999-9.349-68.328-12.016 23.102-19.992 34.656-51.549 34.656-94.657v-140.652c0-7.99 2.779-14.661 8.341-19.992 5.555-5.321 14.327-6.888 26.329-4.658 103.119 34.214 187.23 95.879 252.336 184.991 65.099 89.105 97.66 189.427 97.66 300.992-0.023 92.864-22.925 178.518-68.681 256.961z" />
<glyph unicode="&#xe92a;" glyph-name="g-plus-1" d="M662.21 960h-244.211c-108.823 0-184.152-23.858-251.952-79.867-53.322-46.004-85.144-112.862-85.144-178.854 0-101.673 77.519-209.724 221.167-209.724 13.812 0 29.104 1.417 42.598 2.676l-1.988-4.833c-5.774-13.833-11.242-26.883-11.242-47.252 0-39.658 19.131-64.12 37.628-87.756l2.327-2.993-4.135-0.286c-59.318-4.061-169.727-11.633-250.376-61.201-95.254-56.632-102.657-139.016-102.657-162.906 0-95.053 88.581-190.995 286.492-190.995 230.124 0 350.538 126.96 350.538 252.365 0.021 92.758-54.369 138.55-112.101 187.166l-48.7 37.882c-15.049 12.469-33.789 27.983-33.789 56.727 0 28.258 18.74 46.913 35.28 63.369l1.724 1.745c52.592 41.424 112.196 88.391 112.196 189.979 0 102.139-63.824 154.921-94.514 180.292h81.041c0.994 0 1.988 0.275 2.813 0.814l69.809 43.889c1.988 1.258 2.919 3.68 2.263 5.943-0.624 2.263-2.718 3.818-5.066 3.818zM366.063-8.034c-140.274 0-234.524 65.516-234.524 163.033 0 63.675 38.548 109.944 114.47 137.451 60.799 20.464 139.28 21.479 140.063 21.479 13.293 0 19.977 0 30.595-1.333 98.152-69.852 145.34-106.528 145.34-176.379-0.011-88.983-75.097-144.251-195.944-144.251zM364.741 528.982c-117.727 0-166.586 154.752-166.586 237.612 0 42.133 9.581 74.473 29.294 98.892 21.394 26.767 58.028 44.058 93.329 44.058 108.093 0 167.866-145.287 167.866-245.702 0-15.842 0-64.035-33.292-97.507-22.388-22.346-58.8-37.353-90.611-37.353zM1004.488 481.741h-128.683v128.229c0 2.919-2.38 5.288-5.288 5.288h-55.352c-2.919 0-5.288-2.369-5.288-5.288v-128.229h-128.038c-2.919 0-5.288-2.369-5.288-5.288v-56.093c0-2.908 2.369-5.288 5.288-5.288h128.038v-129.054c0-2.908 2.369-5.288 5.288-5.288h55.352c2.908 0 5.288 2.38 5.288 5.288v129.075h128.683c2.919 0 5.288 2.358 5.288 5.288v56.072c0 2.929-2.358 5.288-5.288 5.288z" />
<glyph unicode="&#xe92b;" glyph-name="login-4" d="M930.985 538.537c0.027 0.959 0.23 1.843 0.070 2.877-2.443 15.335-1.479 31.698-1.388 47.172 0.075 11.911 1.827 24.058-4.453 34.795-1.291 2.197-3.086 3.82-5.112 4.945 6.43 8.975 2.663 23.527-12.131 24.776-68.218 5.755-135.697-11.756-203.6 1.141 0.316 1.291 0.825 2.438 0.841 3.944 0.466 44.461 2.679 87.079-11.161 129.927-3.167 9.811-15.174 16.181-24.583 10.003-63.964-41.98-106.925-108.104-168.424-152.693-1.741 26.404-3.697 52.841-6.124 79.374 5.513 5.878 6.858 16.39 0.67 22.938-24.701 26.163-207.045 141.902-307.481 175.304 117.593 6.649 234.414-9.869 351.214-25.633 59.088-7.973 118.128-14.729 177.683-17.971 64.409-3.51 44.959-102.756 46.459-153.283 0.723-24.529 37.404-24.55 38.063 0 1.581 59.533-0.954 118.97-10.454 177.785-1.372 8.498-10.989 14.552-19.037 14.493-209.392-1.511-423 77.263-630.174 21.695-4.592-1.227-6.837-5.197-7.174-9.318-3.151-0.873-5.915-2.095-7.908-3.992-0.638 1.313-0.986 2.759-1.709 4.029-0.52 0.916-1.704 0.964-2.443 0.316-30.048-26.265-26.072-74.568-28.574-112.106-4.661-69.906-1.061-140.493 2.191-210.378 6.783-145.615 20.505-290.871 21.464-436.722 0.064-9.768 7.105-14.831 14.633-15.613-0.214-3.043 0.739-6.146 3.692-8.68 45.441-39.060 97.838-68.427 149.736-97.977 54.582-31.077 108.961-66.734 165.649-93.492 0.729-0.338 1.468-0.364 2.208-0.573 9.334-11.52 9.789-9.955 27.583-17.815 11.397-5.037 25.236 0.718 25.37 14.558 0.734 75.521 2.009 150.411 2.942 225.059 0.407-0.021 0.68-0.204 1.109-0.204 90.701 0.643 181.187-2.17 271.872-3.183 10.357-0.118 18.716 8.653 18.839 18.833 0.975 81.924 13.459 168.858 2.186 250.086-2.186 15.774-29.26 15.64-31.591 0-11.171-74.836-8.943-154.863-8.385-231.178-84.234 0.407-169.019 4.517-252.926-3.258-0.289-0.027-0.477-0.171-0.755-0.22 1.147 106.196 1.222 211.969-2.615 318.246 47.981-46.577 107.97-86.404 162.172-123.412 11.086-7.566 24.909 2.636 25.365 14.558 1.232 32.534 8.284 64.361 10.298 96.777 31.162-9.586 64.961-8.621 97.484-7.115 36.113 1.677 85.804-1.441 119.639 11.681 8.841 3.429 11.906 12.479 8.771 19.503zM303.157 826.676c55.343-31.537 111.067-78.474 170.509-102.424-1.972-16.342-3.236-32.711-3.997-49.090-94.601 86.296-224.453 141.425-333.371 206.252-0.263 0.155-0.477 0.005-0.729 0.107-0.016 10.909-0.879 21.539-3.526 31.43 57.031-8.616 122.822-58.751 171.114-86.275zM468.881 649.759c-0.139-8.401-0.171-16.813-0.107-25.226-116.087 67.967-232.849 129.246-335.868 218.152 1.136 9.752 1.999 19.568 2.422 29.26 110.692-73.748 220.971-151.959 333.553-222.187zM128.293 794.571c0.246 10.062 1.404 20.891 2.722 32.014 48.747-44.081 101.294-83.617 155.147-121.274 55.52-38.824 117.893-84.298 183.073-108.061 0.252-8.482 0.477-16.969 0.863-25.451-105.607 76.604-224.164 149.028-339.897 208.776-0.745 0.386-1.452 0.289-2.095 0.016 0.080 4.661 0.064 9.318 0.188 13.979zM128.035 775.925c42.307-41.846 99.006-71.326 148.943-102.997 62.957-39.933 126.053-79.588 186.084-123.867 2.925-2.159 5.83-2.55 8.364-1.806 0.316-5.46 0.541-10.92 0.884-16.379-23.072 15.378-60.144 27.68-73.994 34.886-89.329 46.529-180.646 89.168-270.431 134.883-0.3 25.081-0.225 50.173 0.15 75.28zM128.266 683.456c80.408-45.902 164.754-84.753 246.394-128.362 15.581-8.321 30.953-17.033 46.668-25.151 11.884-6.14 23.709-12.361 35.492-18.7 21.839-11.75 10.153-1.822 16.605 2.24 0.032-0.445 0.064-0.889 0.091-1.334-3.37-3.745-3.622-10.078 0.889-12.677 1.286-18.421 2.615-36.847 3.815-55.257-86.227 69.172-326.192 225.369-348.39 185.147-0.214-0.396-0.241-0.798-0.354-1.2-0.638 18.426-0.879 36.858-1.211 55.295zM129.6 624.877c0.579-1.313 1.704-2.395 3.236-2.909 130.854-44.043 229.281-142.304 347.158-208.502 0.455-8.648 0.97-17.301 1.302-25.949 0.113-3.011 0.059-6.033 0.15-9.044-113.842 76.164-227.657 155.945-350.737 216.422-0.439 9.993-0.755 19.991-1.109 29.984zM150.78 166.776c-0.354 0.209-0.718 0.204-1.072 0.375 0.439 1.511 0.959 2.974 0.948 4.801-0.038 5.792-0.204 11.573-0.279 17.365 14.354-17.949 30.514-34.795 47.879-50.826-15.79 9.457-31.602 18.914-47.478 28.285zM473.194-19.952c-4.040 3.209-8.219 4.067-12.056 3.258-1.372 1.114-2.92 2.025-4.308 3.118-89.843 88.231-217.627 133.002-306.817 224.935-0.107 5.026-0.391 10.046-0.52 15.072 52.316-38.642 108.243-72.114 164.047-105.419 54.464-32.496 106.030-70.817 160.457-103.035-0.311-12.64-0.632-25.285-0.804-37.929zM474.539 39.174c-88.118 86.066-222.037 137.005-325.511 200.776-0.477 16.021-1.264 32.036-1.94 48.045 88.381-91.215 219.074-156.283 328.463-216.47 0.027-0.011 0.048-0.011 0.075-0.021-0.375-10.786-0.766-21.561-1.088-32.33zM476.297 90.381c-39.58 35.743-91.397 59.785-137.717 84.935-68.181 37.008-134.176 75.216-192.080 127.226-0.359 7.903-0.889 15.79-1.281 23.693 111.474-66.997 236.053-115.31 332.284-204.554-0.402-10.427-0.809-20.864-1.206-31.302zM478.499 147.144c-32.186 39.885-97.125 67.57-136.496 89.779-64.312 36.263-130.811 70.099-197.47 102.162-0.997 19.535-2.159 39.065-3.252 58.601 43.807-48.431 100.752-84.426 155.924-118.343 51.989-31.971 120.674-80.488 182.741-92.394-0.472-13.272-0.927-26.533-1.447-39.805zM480.712 208.333c-46.615 31.173-107.777 50.907-156.492 77.429-64.811 35.288-125.973 76.047-181.193 125.094-0.825 0.734-1.688 1.072-2.55 1.248-0.407 7.126-0.755 14.252-1.163 21.379 109.845-71.76 220.687-156.915 341.912-206.161-0.177-6.333-0.316-12.656-0.514-18.989zM481.735 245.935c-111.468 70.003-227.888 136.008-343.096 199.93-0.83 14.531-1.554 29.073-2.379 43.609 115.921-69.928 221.029-171.457 344.752-224.116 0.311-0.134 0.638-0.123 0.954-0.209-0.113-6.403-0.075-12.8-0.23-19.214zM482.175 281.7c-103.705 82.015-226.832 161.298-346.466 217.97-0.745 13.17-1.425 26.345-2.154 39.521 60.733-33.863 117.652-73.223 173.734-114.437 55.927-41.096 111.083-93.123 174.983-121.52-0.048-7.18 0-14.36-0.096-21.534zM337.593 425.949c-65.7 46.411-132.499 90.583-204.746 126.037-0.52 9.58-1.109 19.16-1.57 28.746-0.016 0.391-0.027 0.782-0.048 1.173 120.245-71.717 233.273-153.063 350.64-229.281 0.134-9.521 0.472-19.037 0.482-28.564-44.718 37.64-97.216 68.31-144.758 101.888zM900.101 620.622c-4.576-10.1-3.124-21.121-2.315-32.036 0.166-2.218 0.402-4.469 0.579-6.703-7.255 5.015-15.517 9.082-22.6 13.872-9.216 6.226-17.826 13.218-26.233 20.468 17.242 1.039 34.222 2.631 50.569 4.399zM667.637 755.286c5.128-27.797 4.603-55.729 4.12-84.26-16.54 13.625-33.086 27.283-49.664 40.935 14.826 15.378 29.726 30.444 45.543 43.325zM663.356 448.287c-50.355 36.193-100.683 78.249-157.13 102.274-0.311 7.373-0.793 14.767-1.157 22.145 26.303-19.294 52.214-39.103 78.693-58.177 24.347-17.542 52.059-39.087 81.881-46.963-0.804-6.419-1.591-12.843-2.288-19.278zM667.632 483.591c-23.65 16.626-51.834 28.939-75.8 44.75-29.748 19.621-58.279 41.010-87.641 61.199-0.536 9.821-0.964 19.626-1.543 29.458 4.629 1.495 9.119 3.274 13.534 5.208 47.853-36.14 97.366-87.454 154.499-107.879-0.654-10.957-1.725-21.861-3.049-32.738zM733.177 536.046c-24.486 24.229-61.923 43.255-87.963 61.28-25.531 17.665-60.321 49.112-92.758 46.1-0.734-0.070-1.286-0.975-0.643-1.559 24.92-22.718 56.602-39.907 84.335-60.042 16.128-11.707 33.852-28.43 52.418-43.014-4.763-0.129-9.537-1.934-12.881-5.471-25.343 15.945-51.93 29.608-76.706 46.802-23.672 16.428-46.722 33.707-70.335 50.221 20.302 11.086 38.519 26.415 55.943 43.234 49.985-55.906 117.877-93.996 179.789-135.998-10.405-0.552-20.805-1.077-31.2-1.554zM793.771 539.609c-65.154 51.175-139.309 86.296-199.49 143.643 6.944 6.992 13.797 14.134 20.639 21.266 19.471-17.976 38.937-36.097 58.531-54.127 1.409-2.556 3.445-4.544 5.872-5.926 0.605-1.945 1.95-3.708 4.319-4.87 0.932-0.461 1.94-0.745 2.883-1.184 37.71-34.366 76.288-67.817 117.212-98.020-3.327-0.241-6.644-0.53-9.966-0.782zM832.097 543.563c-34.597 26.061-68.62 52.728-102.204 79.915 17.371-4.115 35.417-6.355 53.661-7.501-2.54-2.481-3.585-6.746-0.482-9.505 15.126-13.433 31.146-25.397 47.676-37.056 9.532-6.724 19.251-14.531 29.308-21.679-9.548-1.302-19.021-2.818-27.958-4.174zM890.43 550.196c-13.154 11.793-30.396 20.371-44.975 29.587-17.832 11.268-35.401 22.986-52.337 35.567 13.234-0.525 26.506-0.316 39.735 0.166 9.709-10.046 19.862-19.541 30.696-28.381 10.813-8.819 23.206-20.414 36.815-24.224 0.541-4.292 1.023-8.6 1.811-12.838-3.804 0.295-7.791 0.171-11.745 0.123z" />
<glyph unicode="&#xe92c;" glyph-name="twitter-1" d="M1024 765.579c-37.68-16.708-78.164-28.002-120.66-33.080 43.372 26 76.684 67.17 92.372 116.23-40.598-24.078-85.554-41.56-133.409-50.98-38.32 40.83-92.922 66.34-153.347 66.34-116.022 0-210.083-94.058-210.083-210.077 0-16.466 1.858-32.5 5.44-47.878-174.599 8.764-329.401 92.4-433.016 219.505-18.084-31.028-28.446-67.116-28.446-105.618 0-72.888 37.088-137.191 93.46-174.865-34.438 1.092-66.832 10.542-95.154 26.278-0.020-0.876-0.020-1.756-0.020-2.642 0-101.788 72.418-186.695 168.521-205.999-17.626-4.798-36.188-7.374-55.348-7.374-13.538 0-26.698 1.32-39.528 3.776 26.736-83.46 104.32-144.207 196.251-145.897-71.9-56.352-162.485-89.934-260.915-89.934-16.958 0-33.68 0.992-50.116 2.942 92.972-59.614 203.401-94.394 322.041-94.394 386.42 0 597.734 320.123 597.734 597.742 0 9.108-0.208 18.168-0.61 27.18 41.052 29.618 76.67 66.618 104.834 108.746z" />
<glyph unicode="&#xe92d;" glyph-name="logout-4" d="M685.405 437.478c-8.904 6.466-23.745-2.115-22.701-13.026 3.564-37.497 9.768-71.977 8.554-110.332-1.372-43.532-5.81-86.97-6.701-130.513-81.198-2.443-162.183 4.832-243.371 4.881 2.995 175.657 3.017 351.801 2.99 526.829 0 13.49-13.457 18.065-22.979 14.031-0.038 0.049-0.049 0.104-0.087 0.153-35.715 44.592-114.405 67.861-164.157 93.77-56.213 29.276-111.125 62.204-158.428 104.451 85.418-5.936 170.115-18.213 255.505-24.461 110.125-8.068 219.632 11.982 329.532-2.454 2.831-35.19 1.995-70.119-0.077-105.375-1.908-32.447-7.877-69.37 4.859-100.051 6.778-16.333 27.729-13.375 29.998 4.061 4.641 35.688 1.044 74.021 2.913 110.261 1.645 31.905 1.121 63.024-7.855 93.601 10.14 8.647 10.943 27.161-5.586 30.189-97.935 17.945-197.483 7.773-296.353 5.575-113.033-2.509-224.906 30.003-337.72 16.781-0.902-0.104-1.569-0.492-2.372-0.716-5.067 5.75-15.387 5.543-19.279-4.089-50.747-125.812-27.746-273.101-21.219-404.98 6.499-131.207-13.293-266.186 18.984-395.015 1.826-7.275 7.073-10.036 12.446-9.79 88.659-98.23 229.077-138.122 341.437-201.976 7.543-4.285 14.611-2.143 19.328 2.525 5.953-0.159 11.801 3.711 12.107 11.938 2.564 68.911 4.302 138.040 5.614 207.235 87.123-11.074 174.334-17.792 262.267-14.573 10.555 0.388 18.53 8.308 18.874 18.88 1.837 54.475 7.253 108.742 8.276 163.249 0.634 32.764 5.302 87.096-24.799 108.938zM186.666 813.936c60.471-34.846 135.006-87.134 202.2-105.468 1.077-0.295 2.039-0.279 3.023-0.333-0.077-10.112-0.377-20.306-0.618-30.473-40.646 43.286-100.559 71.496-151.59 98.81-66.085 35.376-132.011 67.429-192.438 112.311 1.066 10.183 2.072 20.356 3.471 30.583 35.119-45.871 85.691-76.47 135.952-105.429zM40.033 679.93c117.225-51.9 232.193-104.014 335.851-180.691 3.58-2.651 7.434-2.23 10.615-0.361-0.601-16.486-1.213-32.971-1.82-49.473-114.361 67.517-231.985 128.808-343.99 200.664-0.257 9.976-0.47 19.918-0.656 29.861zM41.072 635.371c108.895-76.197 222.523-152.694 342.727-209.804-0.241-6.69-0.497-13.37-0.738-20.066-107.069 74.541-219.741 141.358-337.611 197.385-1.23 0.585-2.4 0.536-3.438 0.208-0.328 10.79-0.64 21.542-0.94 32.277zM43.728 546.088c-0.448 16.136-0.946 32.179-1.443 48.167 116.066-63.073 225.070-136.252 333.604-211.361 2.208-1.525 4.329-1.886 6.346-1.782-0.366-10.921-0.793-21.831-1.121-32.753-110.392 67.030-224.906 127.753-337.299 191.356-0.055 2.132-0.038 4.247-0.087 6.373zM43.98 528.34c111.316-69.233 220.38-143.659 336.365-204.862-0.137-5.149-0.355-10.304-0.476-15.453-111.223 60.624-226.896 111.234-335.261 177.45-0.077 14.266-0.355 28.571-0.629 42.865zM44.69 442.512c0.016 10.566-0.033 21.143-0.066 31.714 102.959-75.125 218.599-138.062 334.605-190.017-0.087-4.302-0.273-8.615-0.344-12.916-103.363 71.031-230.58 99.378-334.195 171.219zM378.612 247.155c-0.109-9.795-0.301-19.601-0.333-29.391-100.723 71.791-223.901 116.033-332.216 174.624-0.492 0.268-0.962 0.328-1.438 0.448 0.011 12.446 0.022 24.925 0.049 37.377 99.739-78.662 227.038-114.82 333.938-183.058zM44.608 379.98c108.818-63.455 221.107-125.883 333.812-182.020 0.038-16.923 0.055-33.84 0.377-50.73-94.426 82.149-226.338 111.6-333.703 173.886-0.355 19.612-0.459 39.235-0.486 58.864zM46.636 266.784c-0.705 14.589-0.902 29.178-1.235 43.772 106.337-71.835 234.565-106.364 334.233-188.278 0.481-16.644 0.825-33.31 1.656-49.905-39.23 38.060-107.381 62.636-152.066 86.402-37.639 20.017-75.361 39.908-112.672 60.52-13.616 7.527-66.801 29.883-69.9 47.473-0.005 0.005-0.016 0.005-0.016 0.016zM47.981 243.695c24.614-28.172 92.726-58.651 106.364-66.489 75.251-43.253 151.421-90.037 228.273-129.884 0.798-12.96 1.678-25.898 2.728-38.825-71.31 40.875-142.516 84.041-209.787 130.972-33.272 23.209-80.75 72.699-125.605 76.284-0.814 9.325-1.372 18.634-1.973 27.942zM56.382 156.293c-0.005 0.722 0.197 1.356 0.087 2.115-2.012 13.72-3.547 27.445-4.963 41.154 106.38-77.973 219.675-151.289 335.824-213.745 0.328-3.509 0.568-7.035 0.924-10.544-109.726 63.27-227.393 107.949-331.872 181.019zM387.232 519.13c-98.963 84.221-227.153 127.725-347.373 172.563-0.312 20.541-0.361 41.039-0.153 61.531 96.842-88.392 228.498-138.668 349.008-187.125-0.497-15.666-0.924-31.288-1.481-46.97zM389.511 591.161c-118.433 54.447-245.683 90.917-347.379 176.012-0.667 0.558-1.372 0.907-2.083 1.153 0.301 16.639 0.924 33.294 1.727 49.96 62.499-45.576 129.234-83.751 197.237-120.63 16.961-9.199 122.199-71.939 151.175-72.912-0.279-11.216-0.35-22.356-0.678-33.583zM320.18 679.701c-95.918 39-192.394 93.021-277.692 152.038 0.842 14.556 1.897 29.14 3.241 43.75 51.512-39.705 107.616-72.589 163.533-105.697 62.548-37.027 119.958-81.034 181.462-118.854-0.005-0.137-0.005-0.273-0.011-0.41-21.547 13.539-51.026 21.247-70.534 29.172zM1020.36 592.976c0.005 1.449-0.257 2.963-0.853 4.52-14.474 37.76-62.275 63.521-94.809 84.325-43.614 27.888-90.277 50.812-138.461 69.665-6.259 2.449-10.506-1.585-11.703-6.69-6.024-1.153-11.38-4.958-12.714-11.73-4.881-24.778-2.733-54.092 0.607-81.067-20.383 3.979-44.619 2.148-59.17 2.29-53.813 0.525-109.551-1.153-162.97-8.024-7.051-0.907-11.052-7.674-9.806-13.255-0.224-0.765-0.563-1.427-0.656-2.307-2.646-24.679-4.488-49.43-4.608-74.262-0.071-15.688-1.459-36.683 6.772-50.96-1.705-1.383-3.586-2.52-5.1-4.176-1.487-1.64-1.536-3.996 0-5.625 24.548-26.073 72.649-12.763 105.118-10.806 45.691 2.76 94.902 2.87 140.379 11.626-2.4-11.9-1.334-25.587-2.148-37.076-1.241-17.579-3.165-35.103-4.171-52.715-1.115-19.47 24.865-22.072 32.818-8.030 0.197 0.005 0.339-0.093 0.536-0.082 96.52 5.898 171.979 101.663 221.517 175.581 4.745 7.084 3.504 13.933-0.579 18.798zM895.673 658.52c32.682-20.257 60.384-49.577 91.983-70.452-2.93-4.236-6.209-8.609-9.27-12.911-61.706 39.197-118.745 85.221-181.271 123.079 0.011 7.778-0.219 15.474-1.033 22.881 32.556-21.842 66.281-41.952 99.592-62.597zM560.642 517.785c0.563 8.86-0.814 18.218-1.957 27.237 7.51-6.226 14.851-12.654 22.537-18.661 2.657-2.077 5.417-4.28 8.155-6.455-9.779-0.098-19.574-0.476-28.735-2.121zM632.013 520.234c-4.876-0.339-10.167-0.394-15.627-0.383-6.991 4.362-14.108 8.587-20.722 13.233-13.261 9.325-25.997 19.366-38.634 29.522-1.159 16.77-2.848 33.523-4.564 50.26 31.217-33.168 67.724-65.461 105.801-90.277-8.822-0.902-17.601-1.755-26.253-2.356zM682.853 525.23c-0.361 0.404-0.618 0.853-1.093 1.208-42.318 32.31-85.467 62.007-126.485 95.929 11.063-1.951 22.46-2.886 33.939-3.46 20.295-18.65 40.766-37.082 61.859-54.835 12.987-10.932 29.38-27.429 46.554-37.289-4.925-0.519-9.861-1.011-14.775-1.552zM724.635 529.187c-0.055 0.066-0.033 0.131-0.093 0.191-15.299 16.819-39.678 28.505-58.050 41.93-20.776 15.179-40.995 31.129-61.182 47.096 9.899-0.131 19.793 0.011 29.582 0.197 0.257-0.94 0.705-1.869 1.623-2.728 32.326-30.271 66.473-58.41 101.024-86.079-4.296-0.23-8.582-0.284-12.905-0.607zM802.843 430.263c0.814 14.387 1.241 32.419-0.541 47.915 13.818-11.031 27.56-22.165 41.176-33.436-12.949-6.373-26.461-11.375-40.635-14.48zM861.729 454.865c-20.252 19.508-41.897 37.235-64.133 54.207 2.564 8.494-3.17 19.481-14.042 20.465-4.624 0.421-9.358 0.328-14.026 0.497-39.766 28.981-80.335 56.956-117.908 88.873 5.4 0.115 10.894 0.251 16.158 0.317 9.385 0.12 18.765 0.066 28.139-0.038 52.573-57.208 115.082-108.824 175.433-157.729-3.203-2.208-6.33-4.559-9.62-6.592zM885.479 471.777c-49.003 55.83-115.181 96.399-170.213 146.971 6.696-0.191 13.386-0.312 20.093-0.634 11.577-0.552 23.876-4.428 35.759-5.778 27.019-17.245 52.775-36.098 77.662-56.645 13.851-11.44 27.259-23.449 40.525-35.568 8.117-7.417 15.955-17.535 26.543-21.104-9.675-9.708-19.776-18.896-30.369-27.243zM925.715 509.307c-7.964 23.504-48.298 47.238-65.91 60.684-21.017 16.048-43.264 33.141-67.271 46.008 3.657 3.099 5.778 7.707 3.87 12.96-1.044 2.875-2.596 5.335-4.346 7.603 0.377 2.76 0.711 5.69 1.077 8.516 21.339-20.984 43.258-41.476 65.101-61.876 20.798-19.421 48.205-52.436 77.099-58.695 1.848-0.399 3.591 0.295 5.023 1.356-4.766-5.597-9.609-11.162-14.644-16.557zM942.042 533.21c-16.283 24.739-49.681 42.187-72.25 61.531-25.16 21.558-49.167 44.68-74.819 65.669 0.782 7.439 1.334 14.982 1.733 22.515 57.257-40.547 110.573-86.588 169.327-124.97-7.603-10.123-15.578-20.252-23.941-30.145 0.891 1.602 1.203 3.498-0.049 5.4z" />
<glyph unicode="&#xe92e;" glyph-name="facebook-1" d="M592.592-64h-191.872v512h-128v176.45l128 0.058-0.208 103.952c0 143.952 39.034 231.54 208.6 231.54h141.176v-176.484h-88.23c-66.032 0-69.208-24.656-69.208-70.684l-0.262-88.324h158.692l-18.708-176.45-139.852-0.058-0.128-512z" />
<glyph unicode="&#xe92f;" glyph-name="setting-5" d="M986.532 522.56l-101.436 16.922c-7.372 30.141-18.122 58.953-32.121 85.825l64.936 80.514c13.811 17.016 13.184 41.498-1.377 57.921l-40.343 45.403c-14.624 16.405-38.874 19.875-57.372 8.188l-86.747-54.531c-38.154 26.658-81.374 46.343-127.996 57.765l-16.971 101.98c-3.561 21.594-22.247 37.438-44.183 37.438h-60.796c-21.891 0-40.64-15.844-44.122-37.438l-17.064-102.012c-38.546-9.437-74.687-24.671-107.669-44.735l-82.498 58.876c-17.78 12.703-42.201 10.716-57.717-4.767l-42.951-42.982c-15.483-15.516-17.469-39.937-4.734-57.717l59.013-82.656c-19.875-32.733-34.952-68.668-44.388-106.871l-102.561-17.125c-21.561-3.561-37.436-22.249-37.436-44.185v-60.748c0-21.934 15.875-40.624 37.436-44.185l102.561-17.125c7.749-31.437 18.999-61.466 33.952-89.308l-64.64-80.059c-13.764-17-13.186-41.498 1.375-57.906l40.312-45.404c14.625-16.436 38.888-19.843 57.388-8.186l87.998 55.278c37.234-25.468 79.358-44.186 124.56-55.278l17.064-101.997c3.483-21.595 22.231-37.439 44.122-37.439h60.796c21.935 0 40.622 15.843 44.183 37.438l17 101.997c38.065 9.311 73.748 24.279 106.436 43.999l85.936-61.375c17.748-12.748 42.187-10.748 57.688 4.784l42.968 42.967c15.465 15.469 17.56 39.877 4.716 57.689l-61.182 85.779c19.932 32.843 35.089 68.842 44.466 107.215l101.435 16.937c21.623 3.561 37.434 22.25 37.434 44.185v60.748c-0.032 21.933-15.843 40.621-37.469 44.183zM513.609 256.005c-106.013 0-191.995 85.998-191.995 191.995 0 106.013 85.982 191.995 191.995 191.995 105.995 0 191.992-85.982 191.992-191.995 0-105.997-85.998-191.995-191.992-191.995z" />
<glyph unicode="&#xe930;" glyph-name="delete-4" d="M959.36 741.824c-3.072 50.24-44.384 90.112-95.36 90.112h-96v32.064c0 53.024-43.008 96-96 96h-320c-53.024 0-96-42.976-96-96v-32.032h-96c-51.040 0-92.32-39.872-95.392-90.112h-0.608v-69.856c0-35.328 28.672-64 64-64v0-544c0-70.688 57.312-128 128-128h512c70.688 0 128 57.312 128 128v544c35.328 0 64 28.672 64 64v69.824h-0.64zM320 863.968c0 17.696 14.304 32 32 32h320c17.696 0 32-14.304 32-32v-32h-384v32zM832 63.968c0-35.264-28.736-64-64-64h-512c-35.296 0-64 28.736-64 64v544h640v-544zM896 704v-32h-768v63.968c0 17.696 14.304 32 32 32h704c17.696 0 32-14.304 32-32v-31.968zM288 63.84h64c17.696 0 32 14.304 32 32v416c0 17.696-14.304 32-32 32h-64c-17.696 0-32-14.304-32-32v-416c0-17.696 14.304-32 32-32zM288 511.872h64v-416h-64v416zM480 63.84h64c17.696 0 32 14.304 32 32v416c0 17.696-14.304 32-32 32h-64c-17.696 0-32-14.304-32-32v-416c0-17.696 14.304-32 32-32zM480 511.872h64v-416h-64v416zM672 63.84h64c17.696 0 32 14.304 32 32v416c0 17.696-14.304 32-32 32h-64c-17.696 0-32-14.304-32-32v-416c0-17.696 14.304-32 32-32zM672 511.872h64v-416h-64v416z" />
<glyph unicode="&#xe931;" glyph-name="g-plus-3" d="M512 960c-282.768 0-512-229.222-512-512s229.232-512 512-512 512 229.222 512 512-229.236 512-512 512zM640.582 448c0-128.484-104.527-233.011-233.011-233.011s-233.011 104.527-233.011 233.011 104.527 233.011 233.011 233.011c51.838 0 100.948-16.687 142.019-48.258l-54.1-70.372c-25.418 19.54-55.822 29.868-87.92 29.868-79.537 0-144.244-64.707-144.244-144.244s64.707-144.244 144.244-144.244c64.061 0 118.5 41.975 137.263 99.863h-137.263v88.762h233.011v-44.386zM885.9 418.984h-66.746v-66.755h-58.042v66.755h-66.718v58.038h66.718v66.751h58.042v-66.755h66.746v-58.033z" />
<glyph unicode="&#xe932;" glyph-name="mail-4" d="M687.744 279.859c9.605 0 17.961 3.185 25.037 9.441l-121.252 121.262c-2.898-2.079-5.724-4.096-8.366-6.031-9.093-6.666-16.425-11.899-22.088-15.626-5.673-3.727-13.179-7.547-22.579-11.459-9.39-3.901-18.135-5.837-26.266-5.837h-0.502c-8.12 0-16.876 1.935-26.266 5.837-9.4 3.912-16.916 7.731-22.579 11.459-5.652 3.727-13.015 8.96-22.098 15.626-2.519 1.853-5.335 3.901-8.356 6.093l-121.293-121.324c7.086-6.257 15.432-9.441 25.047-9.441h351.56zM322.084 486.922c-9.073 6.062-17.121 13.005-24.115 20.787v-184.515l106.885 106.895c-21.402 14.92-48.937 33.864-82.77 56.832zM702.059 486.922c-32.522-22.006-60.18-40.97-82.964-56.883l106.865-106.844v184.515c-6.851-7.639-14.807-14.582-23.9-20.787zM687.744 616.141h-351.56c-12.268 0-21.699-4.137-28.303-12.421-6.615-8.284-9.912-18.627-9.912-31.048 0-10.025 4.383-20.89 13.128-32.594 8.755-11.715 18.084-20.91 27.945-27.587 5.396-3.82 21.719-15.165 48.947-34.038 14.715-10.179 27.494-19.067 38.482-26.737 9.359-6.523 17.428-12.165 24.105-16.855 0.758-0.532 1.956-1.393 3.574-2.519 1.72-1.239 3.901-2.816 6.595-4.772 5.171-3.727 9.472-6.769 12.892-9.062 3.42-2.314 7.557-4.905 12.421-7.772 4.854-2.857 9.441-5.007 13.732-6.461 4.301-1.434 8.284-2.14 11.95-2.14h0.461c3.656 0 7.649 0.707 11.95 2.14 4.28 1.454 8.858 3.584 13.752 6.461 4.844 2.857 8.991 5.458 12.421 7.772 3.42 2.294 7.731 5.335 12.902 9.062 2.693 1.946 4.874 3.533 6.595 4.772 1.597 1.126 2.785 1.987 3.574 2.519 5.192 3.625 13.302 9.236 24.166 16.814 19.814 13.752 48.957 34.007 87.613 60.815 11.622 8.11 21.33 17.9 29.153 29.358 7.782 11.469 11.704 23.501 11.704 36.055 0 10.527-3.799 19.517-11.346 27.003-7.619 7.485-16.599 11.233-26.941 11.233z" />
<glyph unicode="&#xe933;" glyph-name="member-3" d="M653.792 333.408c-6.304 2.048-46.304 20.096-21.312 96.064h-0.384c65.152 67.104 114.944 175.072 114.944 281.376 0 163.456-108.672 249.152-235.008 249.152-126.4 0-234.496-85.664-234.496-249.152 0-106.752 49.504-215.168 115.072-282.112 25.536-67.008-20.16-91.904-29.696-95.328-132.32-47.904-287.52-135.104-287.52-221.184 0-23.264 0-9.152 0-32.288 0-117.312 227.392-143.968 437.888-143.968 210.784 0 435.328 26.656 435.328 143.968 0 23.072 0 9.024 0 32.288 0 88.672-156 175.2-294.816 221.184z" />
<glyph unicode="&#xe934;" glyph-name="sign-in-error-popup" d="M241.472 416.96h37.888v70.016h-37.888v-70.016zM52.096 451.456v70.976h-37.888v-105.472h37.888v34.496zM317.184 451.456v-34.496h37.888v105.472h-37.888v-70.976zM203.584 486.976h37.888v35.456h-113.6v-35.456h75.712zM279.36 557.824h37.824v-35.392h-37.824v35.392zM127.872 451.456v35.52h-37.888v-70.016h37.888v34.496zM52.096 557.824h37.952v-35.392h-37.952v35.392zM165.696 557.824h113.664v35.392h-189.376v-35.392h75.712zM279.36 274.304h-189.376v-35.392h227.2v35.392h-37.824zM279.36 345.152h37.824v-35.392h-37.824v35.392zM14.208 380.608v-70.912h37.888v107.264h-37.888v-36.352zM52.096 309.696h37.952v-35.392h-37.952v35.392zM317.184 416.064v-70.912h37.888v71.808h-37.888v-0.896zM127.872 416.064v0.896h-37.888v-71.808h37.888v70.912zM165.696 345.152h-37.824v-35.456h113.6v35.456h-75.776zM279.36 416.064v0.896h-37.888v-71.808h37.888v70.912zM241.472 168.064v35.392h-37.888v35.456h-37.888v-35.456h-37.888v-35.392h-37.824v-141.76h189.312v141.76h-37.824zM827.544 172.239l40.316 40.599 38.010-37.746-40.316-40.599-38.010 37.746zM865.572 134.527l40.316 40.599 38.010-37.746-40.316-40.599-38.010 37.746zM903.42 96.878l40.316 40.599 38.010-37.746-40.316-40.599-38.010 37.746zM867.785 212.728l40.316 40.599 38.010-37.746-40.316-40.599-38.010 37.746zM907.999 253.308l40.316 40.599 38.010-37.746-40.316-40.599-38.010 37.746zM747.006 91.124l40.316 40.599 38.010-37.746-40.316-40.599-38.010 37.746zM787.175 131.723l40.316 40.599 38.010-37.746-40.316-40.599-38.010 37.746zM789.677 209.842l40.316 40.599 38.010-37.746-40.316-40.599-38.010 37.746zM751.72 247.536l40.316 40.599 38.010-37.746-40.316-40.599-38.010 37.746zM145.507 777.766l40.316 40.599 38.010-37.746-40.316-40.599-38.010 37.746zM183.599 739.99l40.316 40.599 38.010-37.746-40.316-40.599-38.010 37.746zM221.447 702.341l40.316 40.599 38.010-37.746-40.316-40.599-38.010 37.746zM185.766 818.3l40.316 40.599 38.010-37.746-40.316-40.599-38.010 37.746zM226.026 858.771l40.316 40.599 38.010-37.746-40.316-40.599-38.010 37.746zM65.033 696.651l40.316 40.599 38.010-37.746-40.316-40.599-38.010 37.746zM105.202 737.25l40.316 40.599 38.010-37.746-40.316-40.599-38.010 37.746zM107.64 815.369l40.316 40.599 38.010-37.746-40.316-40.599-38.010 37.746zM69.747 852.999l40.316 40.599 38.010-37.746-40.316-40.599-38.010 37.746zM904.064 699.2l-44.096 0.192-0.192-47.168-0.192-46.976-44.032 0.192-0.256-47.168 44.032-0.192-0.192-47.040-44.032 0.192-0.192-47.104 88.128-0.384 0.256 47.104 0.192 47.104 0.192 47.040 0.384 94.208zM873.792 893.632c-63.199 0-114.432-51.233-114.432-114.432s51.233-114.432 114.432-114.432c63.199 0 114.432 51.233 114.432 114.432s-51.233 114.432-114.432 114.432zM873.792 702.848c-42.133 0-76.288 34.155-76.288 76.288s34.155 76.288 76.288 76.288c42.133 0 76.288-34.155 76.288-76.288s-34.155-76.288-76.288-76.288z" />
<glyph unicode="&#xe935;" glyph-name="eye-closed-1" d="M1006.592 395.712c-11.008 12.96-22.72 25.024-33.92 36.128-64.96 64-134.784 117.568-211.904 157.44-55.264 28.576-109.44 47.328-161.888 56.704-31.584 5.632-60.608 7.232-86.176 7.232-26.688 0-56.32-1.408-87.904-7.232-52.96-9.792-107.232-28.64-161.856-56.704-74.976-38.656-145.248-91.648-211.904-157.44-12.864-12.672-24-24.352-33.952-36.128-22.88-27.2-22.848-62.912 0-90.048 27.2-32.384 63.52-66.080 109.024-102.336 96.864-77.184 191.776-126.176 284.768-146.304 32.736-7.072 66.752-10.016 101.792-10.016 33.888 0 67.36 2.944 100.096 10.016 94.048 20.256 189.184 68.896 285.824 146.304 48.512 38.784 83.84 73.408 107.904 102.336 23.328 27.808 23.584 62.432 0.096 90.048zM959.872 345.696c-24.48-30.048-58.272-61.216-100.096-94.592-87.744-70.048-173.984-115.584-259.712-133.504-31.616-6.528-60.64-8.896-87.328-8.896h-1.664c-27.264 0-55.712 2.528-86.24 8.896-84.64 18.016-171.616 62.496-260.832 133.504-42.048 33.472-75.104 65.088-98.976 94.592-3.904 2.72-3.904 6.112 0 10.016 2.752 3.84 7.616 9.568 14.464 16.672 7.072 7.328 12.224 12.768 15.008 16.096 64.512 63.392 130.4 111.232 196.864 144.64 53.152 26.656 101.28 44.32 144.64 51.648 25.056 4.32 50.624 6.72 76.768 6.72 24.992 0 50.048-2.112 76.16-6.72 43.968-7.616 92.224-25.248 144.64-51.648 67.68-34.208 132.896-81.792 195.744-144.64 14.464-14.528 24.672-25.44 30.592-32.768 3.008-3.776 2.752-7.296-0.032-10.016zM512.736 545.92c-53.984 0-100.672-18.912-139.072-57.344-38.336-38.368-57.248-84.512-57.248-138.432s18.784-99.68 57.248-137.952c38.272-38.016 85.12-56.704 139.072-56.704s99.552 18.88 137.344 56.704c38.368 38.368 57.28 84 57.28 137.952s-19.040 99.968-57.28 138.432c-37.92 38.272-83.392 57.344-137.344 57.344zM606.752 255.52c-26.176-26.112-57.312-38.88-94.016-38.88-37.28 0-68.96 13.312-95.136 39.424-26.112 26.112-39.488 57.856-39.488 94.016 0 37.248 13.344 68.448 39.488 94.56s57.856 39.456 95.136 39.456c37.248 0 68.256-13.504 94.016-39.456 26.016-26.336 38.912-57.312 38.912-94.56 0-36.672-12.8-68.384-38.912-94.56z" />
<glyph unicode="&#xe936;" glyph-name="twitter-5" d="M798.638 602.788c-19.589-8.684-40.643-14.561-62.71-17.203 22.548 13.507 39.823 34.929 48.005 60.375-21.156-12.503-44.524-21.586-69.396-26.511-19.917 21.248-48.261 34.488-79.677 34.488-60.324 0-109.199-48.886-109.199-109.169 0-8.55 0.942-16.886 2.816-24.883-90.737 4.557-171.213 48.026-225.065 114.094-9.411-16.097-14.766-34.847-14.766-54.876 0-37.878 19.292-71.311 48.568-90.88-17.9 0.614-34.734 5.519-49.459 13.711v-1.362c0-52.89 37.652-97.034 87.572-107.080-9.144-2.447-18.79-3.809-28.774-3.809-7.045 0-13.865 0.686-20.552 2.017 13.896-43.397 54.221-74.977 101.98-75.837-37.345-29.245-84.449-46.674-135.608-46.674-8.806 0-17.49 0.532-26.051 1.495 48.333-31.017 105.708-49.121 167.383-49.121 200.899 0 310.671 166.38 310.671 310.671l-0.358 14.141c21.453 15.309 39.997 34.529 54.62 56.412z" />
<glyph unicode="&#xe937;" glyph-name="facebook-4" d="M650.598 725.115l-71.895 0.123c-80.783 0-132.987-53.545-132.987-136.448v-62.915h-72.284c-6.257 0-11.305-5.079-11.305-11.315v-91.136c0-6.236 5.069-11.305 11.305-11.305h72.284v-230.011c0-6.257 5.059-11.305 11.305-11.305h94.331c6.236 0 11.295 5.059 11.295 11.305v229.99h84.521c6.246 0 11.325 5.038 11.325 11.305l0.020 91.136c0 3-1.198 5.868-3.318 7.997-2.12 2.12-4.997 3.318-7.987 3.318h-84.572v53.32c0 25.641 6.124 38.646 39.496 38.646l48.425 0.020c6.226 0 11.305 5.069 11.305 11.305v84.644c0.020 6.257-5.038 11.315-11.264 11.325z" />
<glyph unicode="&#xe938;" glyph-name="upload-avatar" d="M567.71 326.829h28.686c6.056 13.359 17.096 26.977 38.77 26.977h53.153c-30.611 21.707-71.816 40.451-110.558 53.268-3.37 1.112-24.82 10.769-11.42 51.451h-0.183c34.897 35.955 61.576 93.794 61.576 150.725 0 87.562-58.239 133.466-125.891 133.466-67.713 0-125.613-45.877-125.613-133.466 0-57.154 26.509-115.244 61.643-151.098 13.678-35.901-10.803-49.213-15.916-51.071-70.866-25.647-154.020-72.358-154.020-118.486 0-12.424 0-4.889 0-17.272 0-62.823 121.815-77.098 234.564-77.098 8.68 0 17.401 0.102 26.109 0.278v93.231c0 21.558 17.537 39.095 39.102 39.095zM756.56 301.229h-47.206c-3.364 13.495-6.754 26.983-20.229 26.983h-53.94c-13.488 0-16.872-13.495-20.236-26.983h-47.219c-7.419 0-13.482-6.076-13.482-13.482v-121.415c0-7.405 6.076-13.482 13.482-13.482h188.864c7.432 0 13.509 6.076 13.509 13.482v121.415c-0.034 7.412-6.117 13.482-13.543 13.482zM662.135 167.18c-23.226 0-43.306 13.244-53.241 32.571-4.211 8.185-6.632 17.449-6.632 27.295 0 33.060 26.794 59.86 59.867 59.86 29.323 0 53.682-21.104 58.822-48.949 0.665-3.533 1.031-7.195 1.031-10.911 0.020-33.060-26.773-59.867-59.846-59.867zM756.566 260.771h-26.997v13.495h26.99v-13.495h0.007zM662.135 270.889c-24.223 0-43.835-19.653-43.842-43.856 0-9.27 2.902-17.862 7.799-24.942 7.907-11.44 21.084-18.913 36.037-18.913 24.081 0 43.605 19.402 43.829 43.442 0 0.142 0.027 0.264 0.027 0.414 0 24.21-19.632 43.856-43.849 43.856z" />
<glyph unicode="&#xe939;" glyph-name="github-7" d="M688.742 613.335c9.236 23.245 9.523 48.957 0.84 77.158-1.239 4.024-2.662 8.1-4.27 12.227-1.004 0.328-2.048 0.594-3.164 0.778-1.106 0.205-2.273 0.328-3.492 0.389-4.905 0.256-10.66-0.553-17.316-2.406-3.318-0.932-6.881-2.13-10.639-3.584-3.779-1.464-7.444-2.959-10.957-4.495-10.578-4.608-20.040-9.554-28.375-14.797l-16.23-10.527c-26.542 7.578-53.903 11.387-82.104 11.387-28.221 0-55.593-3.779-82.104-11.387v0c-1.137 0.799-2.365 1.638-3.686 2.54-3.973 2.683-8.796 5.775-14.49 9.288-5.673 3.512-13.773 7.547-24.32 12.124-3.512 1.526-7.301 3.113-11.366 4.751-12.186 4.925-22.129 7.281-29.819 7.035-2.56-0.082-4.874-0.451-6.943-1.106-12.554-33.034-13.568-62.822-3.011-89.395-5.632-6.205-10.557-12.749-14.776-19.62-10.557-17.172-16.712-36.393-18.473-57.672-0.348-4.26-0.532-8.602-0.532-13.015 0-6.205 0.184-12.237 0.553-18.084 1.096-17.531 3.83-33.413 8.212-47.636 4.403-14.254 9.718-26.44 15.933-36.577 2.068-3.379 4.25-6.554 6.523-9.462 2.284-2.929 4.7-5.734 7.281-8.417 7.721-8.028 16.763-15.032 27.136-20.931 10.373-5.919 20.49-10.609 30.382-14.070 3.287-1.147 6.564-2.161 9.8-3.041 10.086-2.734 21.197-4.905 33.26-6.615 3.441-0.461 6.943-0.922 10.547-1.3-7.107-6.574-12.493-14.899-16.169-24.996-2.202-6.083-3.779-12.769-4.741-20.122-5.99-2.929-12.401-5.14-19.241-6.615-6.851-1.464-14.95-2.212-24.361-2.212-9.39 0-18.719 3.195-28.006 9.482-3.85 2.611-7.414 5.806-10.793 9.431-4.741 5.007-9.083 10.906-12.923 17.92-4.055 7.025-8.96 13.025-14.705 18.104-1.915 1.679-3.922 3.256-6.021 4.721-8.428 5.857-15.452 9.318-21.156 10.516l-8.571 1.3c-1.495 0-2.877-0.041-4.137-0.143-3.789-0.236-6.533-0.87-8.253-1.843-0.563-0.328-1.044-0.655-1.413-1.065-1.116-1.116-1.362-2.458-0.696-4.024 0.809-2.038 2.109-4.076 3.84-6.164 1.7-1.997 3.533-3.779 5.53-5.253l3-2.202c1.393-0.645 2.775-1.475 4.157-2.365 4.854-3.195 9.667-7.916 14.428-14.275 6.144-8.182 10.629-15.647 13.466-22.354l4.27-10.066c3.697-11.080 9.964-20.060 18.79-26.952 6.625-5.161 13.65-8.909 21.084-11.264 2.478-0.778 4.997-1.434 7.557-1.894 10.26-1.925 20.173-2.918 29.706-3.092 9.554-0.164 17.469 0.358 23.706 1.516l9.841 1.741c0-11.121 0.113-24.084 0.195-39.014 0.020-1.874 0.041-3.625 0.072-5.274 0.143-11.5 0.195-17.644 0.195-18.381 0-1.495-0.215-2.847-0.532-4.178h163.963c-0.317 1.362-0.543 2.775-0.543 4.28v92.477c0 15.954-2.437 29.399-7.127 40.52-3.645 8.663-8.632 15.964-15.135 21.699 16.261 1.741 30.884 4.362 43.817 7.895 12.984 3.533 26.368 9.247 40.202 17.111 13.855 7.885 25.385 17.603 34.673 29.143 3.471 4.321 6.615 9.359 9.605 14.756 4.966 9.001 9.38 19.292 13.015 31.273 5.847 19.128 8.765 41.124 8.765 65.935 0.031 35.441-11.254 65.536-33.751 90.388z" />
<glyph unicode="&#xe93a;" glyph-name="g-plus-4" d="M686.090 473.149h-211.282v-70.431h128.901c-19.21-61.225-76.421-105.615-143.974-105.615-83.354 0-150.907 67.564-150.907 150.897 0 83.354 67.574 150.917 150.907 150.917 41.964 0 79.933-17.152 107.295-44.8l51.108 55.562c-40.827 40.008-96.727 64.676-158.403 64.676-125.020 0-226.365-101.345-226.365-226.355 0-125.020 101.345-226.355 226.365-226.355 109.496 0 205.394 77.783 226.355 181.105v70.4zM831.601 473.272h-43.223v43.213h-37.038v-43.213h-43.223v-37.028h43.223v-43.223h37.038v43.223h43.223z" />
<glyph unicode="&#xe93b;" glyph-name="github-8" d="M573.030 223.13h20.48v-20.48h-20.48v20.48zM552.55 223.13h20.48v-20.48h-20.48v20.48zM532.070 223.13h20.48v-20.48h-20.48v20.48zM511.59 223.13h20.48v-20.48h-20.48v20.48zM491.11 223.13h20.48v-20.48h-20.48v20.48zM470.63 223.13h20.48v-20.48h-20.48v20.48zM450.15 223.13h20.48v-20.48h-20.48v20.48zM429.67 223.13h20.48v-20.48h-20.48v20.48zM573.030 243.61h20.48v-20.48h-20.48v20.48zM552.55 243.61h20.48v-20.48h-20.48v20.48zM532.070 243.61h20.48v-20.48h-20.48v20.48zM511.59 243.61h20.48v-20.48h-20.48v20.48zM491.11 243.61h20.48v-20.48h-20.48v20.48zM470.63 243.61h20.48v-20.48h-20.48v20.48zM450.15 243.61h20.48v-20.48h-20.48v20.48zM429.67 243.61h20.48v-20.48h-20.48v20.48zM573.030 264.090h20.48v-20.48h-20.48v20.48zM552.55 264.090h20.48v-20.48h-20.48v20.48zM532.070 264.090h20.48v-20.48h-20.48v20.48zM511.59 264.090h20.48v-20.48h-20.48v20.48zM491.11 264.090h20.48v-20.48h-20.48v20.48zM470.63 264.090h20.48v-20.48h-20.48v20.48zM450.15 264.090h20.48v-20.48h-20.48v20.48zM429.67 264.090h20.48v-20.48h-20.48v20.48zM573.030 284.57h20.48v-20.48h-20.48v20.48zM552.55 284.57h20.48v-20.48h-20.48v20.48zM532.070 284.57h20.48v-20.48h-20.48v20.48zM511.59 284.57h20.48v-20.48h-20.48v20.48zM491.11 284.57h20.48v-20.48h-20.48v20.48zM470.63 284.57h20.48v-20.48h-20.48v20.48zM450.15 284.57h20.48v-20.48h-20.48v20.48zM429.67 284.57h20.48v-20.48h-20.48v20.48zM409.19 284.57h20.48v-20.48h-20.48v20.48zM388.71 284.57h20.48v-20.48h-20.48v20.48zM368.23 284.57h20.48v-20.48h-20.48v20.48zM347.75 284.57h20.48v-20.48h-20.48v20.48zM573.030 305.050h20.48v-20.48h-20.48v20.48zM552.55 305.050h20.48v-20.48h-20.48v20.48zM532.070 305.050h20.48v-20.48h-20.48v20.48zM511.59 305.050h20.48v-20.48h-20.48v20.48zM491.11 305.050h20.48v-20.48h-20.48v20.48zM470.63 305.050h20.48v-20.48h-20.48v20.48zM450.15 305.050h20.48v-20.48h-20.48v20.48zM429.67 305.050h20.48v-20.48h-20.48v20.48zM409.19 305.050h20.48v-20.48h-20.48v20.48zM388.71 305.050h20.48v-20.48h-20.48v20.48zM368.23 305.050h20.48v-20.48h-20.48v20.48zM347.75 305.050h20.48v-20.48h-20.48v20.48zM327.27 305.050h20.48v-20.48h-20.48v20.48zM573.030 325.53h20.48v-20.48h-20.48v20.48zM552.55 325.53h20.48v-20.48h-20.48v20.48zM532.070 325.53h20.48v-20.48h-20.48v20.48zM511.59 325.53h20.48v-20.48h-20.48v20.48zM491.11 325.53h20.48v-20.48h-20.48v20.48zM470.63 325.53h20.48v-20.48h-20.48v20.48zM450.15 325.53h20.48v-20.48h-20.48v20.48zM429.67 325.53h20.48v-20.48h-20.48v20.48zM409.19 325.53h20.48v-20.48h-20.48v20.48zM347.75 325.53h20.48v-20.48h-20.48v20.48zM327.27 325.53h20.48v-20.48h-20.48v20.48zM306.79 325.53h20.48v-20.48h-20.48v20.48zM573.030 346.010h20.48v-20.48h-20.48v20.48zM552.55 346.010h20.48v-20.48h-20.48v20.48zM532.070 346.010h20.48v-20.48h-20.48v20.48zM511.59 346.010h20.48v-20.48h-20.48v20.48zM491.11 346.010h20.48v-20.48h-20.48v20.48zM470.63 346.010h20.48v-20.48h-20.48v20.48zM450.15 346.010h20.48v-20.48h-20.48v20.48zM429.67 346.010h20.48v-20.48h-20.48v20.48zM327.27 346.010h20.48v-20.48h-20.48v20.48zM306.79 346.010h20.48v-20.48h-20.48v20.48zM552.55 366.49h20.48v-20.48h-20.48v20.48zM532.070 366.49h20.48v-20.48h-20.48v20.48zM511.59 366.49h20.48v-20.48h-20.48v20.48zM491.11 366.49h20.48v-20.48h-20.48v20.48zM470.63 366.49h20.48v-20.48h-20.48v20.48zM450.15 366.49h20.48v-20.48h-20.48v20.48zM306.79 366.49h20.48v-20.48h-20.48v20.48zM286.31 366.49h20.48v-20.48h-20.48v20.48zM613.99 386.97h20.48v-20.48h-20.48v20.48zM593.51 386.97h20.48v-20.48h-20.48v20.48zM573.030 386.97h20.48v-20.48h-20.48v20.48zM552.55 386.97h20.48v-20.48h-20.48v20.48zM532.070 386.97h20.48v-20.48h-20.48v20.48zM511.59 386.97h20.48v-20.48h-20.48v20.48zM491.11 386.97h20.48v-20.48h-20.48v20.48zM470.63 386.97h20.48v-20.48h-20.48v20.48zM450.15 386.97h20.48v-20.48h-20.48v20.48zM429.67 386.97h20.48v-20.48h-20.48v20.48zM409.19 386.97h20.48v-20.48h-20.48v20.48zM388.71 386.97h20.48v-20.48h-20.48v20.48zM286.31 386.97h20.48v-20.48h-20.48v20.48zM265.83 386.97h20.48v-20.48h-20.48v20.48zM245.35 386.97h20.48v-20.48h-20.48v20.48zM654.95 407.45h20.48v-20.48h-20.48v20.48zM634.47 407.45h20.48v-20.48h-20.48v20.48zM613.99 407.45h20.48v-20.48h-20.48v20.48zM593.51 407.45h20.48v-20.48h-20.48v20.48zM573.030 407.45h20.48v-20.48h-20.48v20.48zM552.55 407.45h20.48v-20.48h-20.48v20.48zM532.070 407.45h20.48v-20.48h-20.48v20.48zM511.59 407.45h20.48v-20.48h-20.48v20.48zM491.11 407.45h20.48v-20.48h-20.48v20.48zM470.63 407.45h20.48v-20.48h-20.48v20.48zM450.15 407.45h20.48v-20.48h-20.48v20.48zM429.67 407.45h20.48v-20.48h-20.48v20.48zM409.19 407.45h20.48v-20.48h-20.48v20.48zM388.71 407.45h20.48v-20.48h-20.48v20.48zM368.23 407.45h20.48v-20.48h-20.48v20.48zM347.75 407.45h20.48v-20.48h-20.48v20.48zM675.43 427.93h20.48v-20.48h-20.48v20.48zM654.95 427.93h20.48v-20.48h-20.48v20.48zM634.47 427.93h20.48v-20.48h-20.48v20.48zM613.99 427.93h20.48v-20.48h-20.48v20.48zM593.51 427.93h20.48v-20.48h-20.48v20.48zM573.030 427.93h20.48v-20.48h-20.48v20.48zM552.55 427.93h20.48v-20.48h-20.48v20.48zM532.070 427.93h20.48v-20.48h-20.48v20.48zM511.59 427.93h20.48v-20.48h-20.48v20.48zM491.11 427.93h20.48v-20.48h-20.48v20.48zM470.63 427.93h20.48v-20.48h-20.48v20.48zM450.15 427.93h20.48v-20.48h-20.48v20.48zM429.67 427.93h20.48v-20.48h-20.48v20.48zM409.19 427.93h20.48v-20.48h-20.48v20.48zM388.71 427.93h20.48v-20.48h-20.48v20.48zM368.23 427.93h20.48v-20.48h-20.48v20.48zM347.75 427.93h20.48v-20.48h-20.48v20.48zM327.27 427.93h20.48v-20.48h-20.48v20.48zM675.43 448.41h20.48v-20.48h-20.48v20.48zM654.95 448.41h20.48v-20.48h-20.48v20.48zM634.47 448.41h20.48v-20.48h-20.48v20.48zM613.99 448.41h20.48v-20.48h-20.48v20.48zM593.51 448.41h20.48v-20.48h-20.48v20.48zM573.030 448.41h20.48v-20.48h-20.48v20.48zM552.55 448.41h20.48v-20.48h-20.48v20.48zM532.070 448.41h20.48v-20.48h-20.48v20.48zM511.59 448.41h20.48v-20.48h-20.48v20.48zM491.11 448.41h20.48v-20.48h-20.48v20.48zM470.63 448.41h20.48v-20.48h-20.48v20.48zM450.15 448.41h20.48v-20.48h-20.48v20.48zM429.67 448.41h20.48v-20.48h-20.48v20.48zM409.19 448.41h20.48v-20.48h-20.48v20.48zM388.71 448.41h20.48v-20.48h-20.48v20.48zM368.23 448.41h20.48v-20.48h-20.48v20.48zM347.75 448.41h20.48v-20.48h-20.48v20.48zM327.27 448.41h20.48v-20.48h-20.48v20.48zM306.79 448.41h20.48v-20.48h-20.48v20.48zM695.91 468.89h20.48v-20.48h-20.48v20.48zM675.43 468.89h20.48v-20.48h-20.48v20.48zM654.95 468.89h20.48v-20.48h-20.48v20.48zM634.47 468.89h20.48v-20.48h-20.48v20.48zM613.99 468.89h20.48v-20.48h-20.48v20.48zM593.51 468.89h20.48v-20.48h-20.48v20.48zM573.030 468.89h20.48v-20.48h-20.48v20.48zM552.55 468.89h20.48v-20.48h-20.48v20.48zM532.070 468.89h20.48v-20.48h-20.48v20.48zM511.59 468.89h20.48v-20.48h-20.48v20.48zM491.11 468.89h20.48v-20.48h-20.48v20.48zM470.63 468.89h20.48v-20.48h-20.48v20.48zM450.15 468.89h20.48v-20.48h-20.48v20.48zM429.67 468.89h20.48v-20.48h-20.48v20.48zM409.19 468.89h20.48v-20.48h-20.48v20.48zM388.71 468.89h20.48v-20.48h-20.48v20.48zM368.23 468.89h20.48v-20.48h-20.48v20.48zM347.75 468.89h20.48v-20.48h-20.48v20.48zM327.27 468.89h20.48v-20.48h-20.48v20.48zM306.79 468.89h20.48v-20.48h-20.48v20.48zM695.91 489.37h20.48v-20.48h-20.48v20.48zM675.43 489.37h20.48v-20.48h-20.48v20.48zM654.95 489.37h20.48v-20.48h-20.48v20.48zM634.47 489.37h20.48v-20.48h-20.48v20.48zM613.99 489.37h20.48v-20.48h-20.48v20.48zM593.51 489.37h20.48v-20.48h-20.48v20.48zM573.030 489.37h20.48v-20.48h-20.48v20.48zM552.55 489.37h20.48v-20.48h-20.48v20.48zM532.070 489.37h20.48v-20.48h-20.48v20.48zM511.59 489.37h20.48v-20.48h-20.48v20.48zM491.11 489.37h20.48v-20.48h-20.48v20.48zM470.63 489.37h20.48v-20.48h-20.48v20.48zM450.15 489.37h20.48v-20.48h-20.48v20.48zM429.67 489.37h20.48v-20.48h-20.48v20.48zM409.19 489.37h20.48v-20.48h-20.48v20.48zM388.71 489.37h20.48v-20.48h-20.48v20.48zM368.23 489.37h20.48v-20.48h-20.48v20.48zM347.75 489.37h20.48v-20.48h-20.48v20.48zM327.27 489.37h20.48v-20.48h-20.48v20.48zM306.79 489.37h20.48v-20.48h-20.48v20.48zM695.91 509.85h20.48v-20.48h-20.48v20.48zM675.43 509.85h20.48v-20.48h-20.48v20.48zM654.95 509.85h20.48v-20.48h-20.48v20.48zM634.47 509.85h20.48v-20.48h-20.48v20.48zM613.99 509.85h20.48v-20.48h-20.48v20.48zM593.51 509.85h20.48v-20.48h-20.48v20.48zM573.030 509.85h20.48v-20.48h-20.48v20.48zM552.55 509.85h20.48v-20.48h-20.48v20.48zM532.070 509.85h20.48v-20.48h-20.48v20.48zM511.59 509.85h20.48v-20.48h-20.48v20.48zM491.11 509.85h20.48v-20.48h-20.48v20.48zM470.63 509.85h20.48v-20.48h-20.48v20.48zM450.15 509.85h20.48v-20.48h-20.48v20.48zM429.67 509.85h20.48v-20.48h-20.48v20.48zM409.19 509.85h20.48v-20.48h-20.48v20.48zM388.71 509.85h20.48v-20.48h-20.48v20.48zM368.23 509.85h20.48v-20.48h-20.48v20.48zM347.75 509.85h20.48v-20.48h-20.48v20.48zM327.27 509.85h20.48v-20.48h-20.48v20.48zM306.79 509.85h20.48v-20.48h-20.48v20.48zM695.91 530.33h20.48v-20.48h-20.48v20.48zM675.43 530.33h20.48v-20.48h-20.48v20.48zM654.95 530.33h20.48v-20.48h-20.48v20.48zM634.47 530.33h20.48v-20.48h-20.48v20.48zM613.99 530.33h20.48v-20.48h-20.48v20.48zM593.51 530.33h20.48v-20.48h-20.48v20.48zM573.030 530.33h20.48v-20.48h-20.48v20.48zM552.55 530.33h20.48v-20.48h-20.48v20.48zM532.070 530.33h20.48v-20.48h-20.48v20.48zM511.59 530.33h20.48v-20.48h-20.48v20.48zM491.11 530.33h20.48v-20.48h-20.48v20.48zM470.63 530.33h20.48v-20.48h-20.48v20.48zM450.15 530.33h20.48v-20.48h-20.48v20.48zM429.67 530.33h20.48v-20.48h-20.48v20.48zM409.19 530.33h20.48v-20.48h-20.48v20.48zM388.71 530.33h20.48v-20.48h-20.48v20.48zM368.23 530.33h20.48v-20.48h-20.48v20.48zM347.75 530.33h20.48v-20.48h-20.48v20.48zM327.27 530.33h20.48v-20.48h-20.48v20.48zM306.79 530.33h20.48v-20.48h-20.48v20.48zM695.91 550.81h20.48v-20.48h-20.48v20.48zM675.43 550.81h20.48v-20.48h-20.48v20.48zM654.95 550.81h20.48v-20.48h-20.48v20.48zM634.47 550.81h20.48v-20.48h-20.48v20.48zM613.99 550.81h20.48v-20.48h-20.48v20.48zM593.51 550.81h20.48v-20.48h-20.48v20.48zM573.030 550.81h20.48v-20.48h-20.48v20.48zM552.55 550.81h20.48v-20.48h-20.48v20.48zM532.070 550.81h20.48v-20.48h-20.48v20.48zM511.59 550.81h20.48v-20.48h-20.48v20.48zM491.11 550.81h20.48v-20.48h-20.48v20.48zM470.63 550.81h20.48v-20.48h-20.48v20.48zM450.15 550.81h20.48v-20.48h-20.48v20.48zM429.67 550.81h20.48v-20.48h-20.48v20.48zM409.19 550.81h20.48v-20.48h-20.48v20.48zM388.71 550.81h20.48v-20.48h-20.48v20.48zM368.23 550.81h20.48v-20.48h-20.48v20.48zM347.75 550.81h20.48v-20.48h-20.48v20.48zM327.27 550.81h20.48v-20.48h-20.48v20.48zM306.79 550.81h20.48v-20.48h-20.48v20.48zM695.91 571.29h20.48v-20.48h-20.48v20.48zM675.43 571.29h20.48v-20.48h-20.48v20.48zM654.95 571.29h20.48v-20.48h-20.48v20.48zM634.47 571.29h20.48v-20.48h-20.48v20.48zM613.99 571.29h20.48v-20.48h-20.48v20.48zM593.51 571.29h20.48v-20.48h-20.48v20.48zM573.030 571.29h20.48v-20.48h-20.48v20.48zM552.55 571.29h20.48v-20.48h-20.48v20.48zM532.070 571.29h20.48v-20.48h-20.48v20.48zM511.59 571.29h20.48v-20.48h-20.48v20.48zM491.11 571.29h20.48v-20.48h-20.48v20.48zM470.63 571.29h20.48v-20.48h-20.48v20.48zM450.15 571.29h20.48v-20.48h-20.48v20.48zM429.67 571.29h20.48v-20.48h-20.48v20.48zM409.19 571.29h20.48v-20.48h-20.48v20.48zM388.71 571.29h20.48v-20.48h-20.48v20.48zM368.23 571.29h20.48v-20.48h-20.48v20.48zM347.75 571.29h20.48v-20.48h-20.48v20.48zM327.27 571.29h20.48v-20.48h-20.48v20.48zM306.79 571.29h20.48v-20.48h-20.48v20.48zM695.91 591.77h20.48v-20.48h-20.48v20.48zM675.43 591.77h20.48v-20.48h-20.48v20.48zM654.95 591.77h20.48v-20.48h-20.48v20.48zM634.47 591.77h20.48v-20.48h-20.48v20.48zM613.99 591.77h20.48v-20.48h-20.48v20.48zM593.51 591.77h20.48v-20.48h-20.48v20.48zM573.030 591.77h20.48v-20.48h-20.48v20.48zM552.55 591.77h20.48v-20.48h-20.48v20.48zM532.070 591.77h20.48v-20.48h-20.48v20.48zM511.59 591.77h20.48v-20.48h-20.48v20.48zM491.11 591.77h20.48v-20.48h-20.48v20.48zM470.63 591.77h20.48v-20.48h-20.48v20.48zM450.15 591.77h20.48v-20.48h-20.48v20.48zM429.67 591.77h20.48v-20.48h-20.48v20.48zM409.19 591.77h20.48v-20.48h-20.48v20.48zM388.71 591.77h20.48v-20.48h-20.48v20.48zM368.23 591.77h20.48v-20.48h-20.48v20.48zM347.75 591.77h20.48v-20.48h-20.48v20.48zM327.27 591.77h20.48v-20.48h-20.48v20.48zM306.79 591.77h20.48v-20.48h-20.48v20.48zM675.43 612.25h20.48v-20.48h-20.48v20.48zM654.95 612.25h20.48v-20.48h-20.48v20.48zM634.47 612.25h20.48v-20.48h-20.48v20.48zM613.99 612.25h20.48v-20.48h-20.48v20.48zM593.51 612.25h20.48v-20.48h-20.48v20.48zM573.030 612.25h20.48v-20.48h-20.48v20.48zM552.55 612.25h20.48v-20.48h-20.48v20.48zM532.070 612.25h20.48v-20.48h-20.48v20.48zM511.59 612.25h20.48v-20.48h-20.48v20.48zM491.11 612.25h20.48v-20.48h-20.48v20.48zM470.63 612.25h20.48v-20.48h-20.48v20.48zM450.15 612.25h20.48v-20.48h-20.48v20.48zM429.67 612.25h20.48v-20.48h-20.48v20.48zM409.19 612.25h20.48v-20.48h-20.48v20.48zM388.71 612.25h20.48v-20.48h-20.48v20.48zM368.23 612.25h20.48v-20.48h-20.48v20.48zM347.75 612.25h20.48v-20.48h-20.48v20.48zM327.27 612.25h20.48v-20.48h-20.48v20.48zM675.43 632.73h20.48v-20.48h-20.48v20.48zM654.95 632.73h20.48v-20.48h-20.48v20.48zM634.47 632.73h20.48v-20.48h-20.48v20.48zM613.99 632.73h20.48v-20.48h-20.48v20.48zM593.51 632.73h20.48v-20.48h-20.48v20.48zM573.030 632.73h20.48v-20.48h-20.48v20.48zM552.55 632.73h20.48v-20.48h-20.48v20.48zM532.070 632.73h20.48v-20.48h-20.48v20.48zM511.59 632.73h20.48v-20.48h-20.48v20.48zM491.11 632.73h20.48v-20.48h-20.48v20.48zM470.63 632.73h20.48v-20.48h-20.48v20.48zM450.15 632.73h20.48v-20.48h-20.48v20.48zM429.67 632.73h20.48v-20.48h-20.48v20.48zM409.19 632.73h20.48v-20.48h-20.48v20.48zM388.71 632.73h20.48v-20.48h-20.48v20.48zM368.23 632.73h20.48v-20.48h-20.48v20.48zM347.75 632.73h20.48v-20.48h-20.48v20.48zM327.27 632.73h20.48v-20.48h-20.48v20.48zM675.43 653.21h20.48v-20.48h-20.48v20.48zM654.95 653.21h20.48v-20.48h-20.48v20.48zM634.47 653.21h20.48v-20.48h-20.48v20.48zM613.99 653.21h20.48v-20.48h-20.48v20.48zM593.51 653.21h20.48v-20.48h-20.48v20.48zM573.030 653.21h20.48v-20.48h-20.48v20.48zM552.55 653.21h20.48v-20.48h-20.48v20.48zM532.070 653.21h20.48v-20.48h-20.48v20.48zM511.59 653.21h20.48v-20.48h-20.48v20.48zM491.11 653.21h20.48v-20.48h-20.48v20.48zM470.63 653.21h20.48v-20.48h-20.48v20.48zM450.15 653.21h20.48v-20.48h-20.48v20.48zM429.67 653.21h20.48v-20.48h-20.48v20.48zM409.19 653.21h20.48v-20.48h-20.48v20.48zM388.71 653.21h20.48v-20.48h-20.48v20.48zM368.23 653.21h20.48v-20.48h-20.48v20.48zM347.75 653.21h20.48v-20.48h-20.48v20.48zM327.27 653.21h20.48v-20.48h-20.48v20.48zM675.43 673.69h20.48v-20.48h-20.48v20.48zM654.95 673.69h20.48v-20.48h-20.48v20.48zM634.47 673.69h20.48v-20.48h-20.48v20.48zM613.99 673.69h20.48v-20.48h-20.48v20.48zM593.51 673.69h20.48v-20.48h-20.48v20.48zM573.030 673.69h20.48v-20.48h-20.48v20.48zM552.55 673.69h20.48v-20.48h-20.48v20.48zM532.070 673.69h20.48v-20.48h-20.48v20.48zM511.59 673.69h20.48v-20.48h-20.48v20.48zM491.11 673.69h20.48v-20.48h-20.48v20.48zM470.63 673.69h20.48v-20.48h-20.48v20.48zM450.15 673.69h20.48v-20.48h-20.48v20.48zM429.67 673.69h20.48v-20.48h-20.48v20.48zM409.19 673.69h20.48v-20.48h-20.48v20.48zM388.71 673.69h20.48v-20.48h-20.48v20.48zM368.23 673.69h20.48v-20.48h-20.48v20.48zM347.75 673.69h20.48v-20.48h-20.48v20.48zM327.27 673.69h20.48v-20.48h-20.48v20.48zM675.43 694.17h20.48v-20.48h-20.48v20.48zM654.95 694.17h20.48v-20.48h-20.48v20.48zM634.47 694.17h20.48v-20.48h-20.48v20.48zM613.99 694.17h20.48v-20.48h-20.48v20.48zM388.71 694.17h20.48v-20.48h-20.48v20.48zM368.23 694.17h20.48v-20.48h-20.48v20.48zM347.75 694.17h20.48v-20.48h-20.48v20.48zM327.27 694.17h20.48v-20.48h-20.48v20.48zM675.43 714.65h20.48v-20.48h-20.48v20.48zM654.95 714.65h20.48v-20.48h-20.48v20.48zM347.75 714.65h20.48v-20.48h-20.48v20.48zM327.27 714.65h20.48v-20.48h-20.48v20.48zM675.43 735.13h20.48v-20.48h-20.48v20.48zM327.27 735.13h20.48v-20.48h-20.48v20.48z" />
<glyph unicode="&#xe93c;" glyph-name="g-plus-5" d="M480.87 243.61h20.48v-20.48h-20.48v20.48zM460.39 243.61h20.48v-20.48h-20.48v20.48zM439.91 243.61h20.48v-20.48h-20.48v20.48zM419.43 243.61h20.48v-20.48h-20.48v20.48zM398.95 243.61h20.48v-20.48h-20.48v20.48zM378.47 243.61h20.48v-20.48h-20.48v20.48zM357.99 243.61h20.48v-20.48h-20.48v20.48zM521.83 264.090h20.48v-20.48h-20.48v20.48zM501.35 264.090h20.48v-20.48h-20.48v20.48zM480.87 264.090h20.48v-20.48h-20.48v20.48zM460.39 264.090h20.48v-20.48h-20.48v20.48zM439.91 264.090h20.48v-20.48h-20.48v20.48zM419.43 264.090h20.48v-20.48h-20.48v20.48zM398.95 264.090h20.48v-20.48h-20.48v20.48zM378.47 264.090h20.48v-20.48h-20.48v20.48zM357.99 264.090h20.48v-20.48h-20.48v20.48zM337.51 264.090h20.48v-20.48h-20.48v20.48zM317.030 264.090h20.48v-20.48h-20.48v20.48zM562.79 284.57h20.48v-20.48h-20.48v20.48zM542.31 284.57h20.48v-20.48h-20.48v20.48zM521.83 284.57h20.48v-20.48h-20.48v20.48zM501.35 284.57h20.48v-20.48h-20.48v20.48zM480.87 284.57h20.48v-20.48h-20.48v20.48zM460.39 284.57h20.48v-20.48h-20.48v20.48zM439.91 284.57h20.48v-20.48h-20.48v20.48zM419.43 284.57h20.48v-20.48h-20.48v20.48zM398.95 284.57h20.48v-20.48h-20.48v20.48zM378.47 284.57h20.48v-20.48h-20.48v20.48zM357.99 284.57h20.48v-20.48h-20.48v20.48zM337.51 284.57h20.48v-20.48h-20.48v20.48zM317.030 284.57h20.48v-20.48h-20.48v20.48zM296.55 284.57h20.48v-20.48h-20.48v20.48zM583.27 305.050h20.48v-20.48h-20.48v20.48zM562.79 305.050h20.48v-20.48h-20.48v20.48zM542.31 305.050h20.48v-20.48h-20.48v20.48zM521.83 305.050h20.48v-20.48h-20.48v20.48zM501.35 305.050h20.48v-20.48h-20.48v20.48zM480.87 305.050h20.48v-20.48h-20.48v20.48zM460.39 305.050h20.48v-20.48h-20.48v20.48zM439.91 305.050h20.48v-20.48h-20.48v20.48zM419.43 305.050h20.48v-20.48h-20.48v20.48zM398.95 305.050h20.48v-20.48h-20.48v20.48zM378.47 305.050h20.48v-20.48h-20.48v20.48zM357.99 305.050h20.48v-20.48h-20.48v20.48zM337.51 305.050h20.48v-20.48h-20.48v20.48zM317.030 305.050h20.48v-20.48h-20.48v20.48zM296.55 305.050h20.48v-20.48h-20.48v20.48zM276.070 305.050h20.48v-20.48h-20.48v20.48zM603.75 325.53h20.48v-20.48h-20.48v20.48zM583.27 325.53h20.48v-20.48h-20.48v20.48zM562.79 325.53h20.48v-20.48h-20.48v20.48zM542.31 325.53h20.48v-20.48h-20.48v20.48zM521.83 325.53h20.48v-20.48h-20.48v20.48zM501.35 325.53h20.48v-20.48h-20.48v20.48zM337.51 325.53h20.48v-20.48h-20.48v20.48zM317.030 325.53h20.48v-20.48h-20.48v20.48zM296.55 325.53h20.48v-20.48h-20.48v20.48zM276.070 325.53h20.48v-20.48h-20.48v20.48zM255.59 325.53h20.48v-20.48h-20.48v20.48zM624.23 346.010h20.48v-20.48h-20.48v20.48zM603.75 346.010h20.48v-20.48h-20.48v20.48zM583.27 346.010h20.48v-20.48h-20.48v20.48zM562.79 346.010h20.48v-20.48h-20.48v20.48zM542.31 346.010h20.48v-20.48h-20.48v20.48zM317.030 346.010h20.48v-20.48h-20.48v20.48zM296.55 346.010h20.48v-20.48h-20.48v20.48zM276.070 346.010h20.48v-20.48h-20.48v20.48zM255.59 346.010h20.48v-20.48h-20.48v20.48zM235.11 346.010h20.48v-20.48h-20.48v20.48zM624.23 366.49h20.48v-20.48h-20.48v20.48zM603.75 366.49h20.48v-20.48h-20.48v20.48zM583.27 366.49h20.48v-20.48h-20.48v20.48zM562.79 366.49h20.48v-20.48h-20.48v20.48zM296.55 366.49h20.48v-20.48h-20.48v20.48zM276.070 366.49h20.48v-20.48h-20.48v20.48zM255.59 366.49h20.48v-20.48h-20.48v20.48zM235.11 366.49h20.48v-20.48h-20.48v20.48zM644.71 386.97h20.48v-20.48h-20.48v20.48zM624.23 386.97h20.48v-20.48h-20.48v20.48zM603.75 386.97h20.48v-20.48h-20.48v20.48zM583.27 386.97h20.48v-20.48h-20.48v20.48zM276.070 386.97h20.48v-20.48h-20.48v20.48zM255.59 386.97h20.48v-20.48h-20.48v20.48zM235.11 386.97h20.48v-20.48h-20.48v20.48zM214.63 386.97h20.48v-20.48h-20.48v20.48zM644.71 407.45h20.48v-20.48h-20.48v20.48zM624.23 407.45h20.48v-20.48h-20.48v20.48zM603.75 407.45h20.48v-20.48h-20.48v20.48zM583.27 407.45h20.48v-20.48h-20.48v20.48zM276.070 407.45h20.48v-20.48h-20.48v20.48zM255.59 407.45h20.48v-20.48h-20.48v20.48zM235.11 407.45h20.48v-20.48h-20.48v20.48zM214.63 407.45h20.48v-20.48h-20.48v20.48zM747.11 427.93h20.48v-20.48h-20.48v20.48zM726.63 427.93h20.48v-20.48h-20.48v20.48zM644.71 427.93h20.48v-20.48h-20.48v20.48zM624.23 427.93h20.48v-20.48h-20.48v20.48zM603.75 427.93h20.48v-20.48h-20.48v20.48zM583.27 427.93h20.48v-20.48h-20.48v20.48zM562.79 427.93h20.48v-20.48h-20.48v20.48zM542.31 427.93h20.48v-20.48h-20.48v20.48zM521.83 427.93h20.48v-20.48h-20.48v20.48zM501.35 427.93h20.48v-20.48h-20.48v20.48zM480.87 427.93h20.48v-20.48h-20.48v20.48zM460.39 427.93h20.48v-20.48h-20.48v20.48zM276.070 427.93h20.48v-20.48h-20.48v20.48zM255.59 427.93h20.48v-20.48h-20.48v20.48zM235.11 427.93h20.48v-20.48h-20.48v20.48zM214.63 427.93h20.48v-20.48h-20.48v20.48zM747.11 448.41h20.48v-20.48h-20.48v20.48zM726.63 448.41h20.48v-20.48h-20.48v20.48zM644.71 448.41h20.48v-20.48h-20.48v20.48zM624.23 448.41h20.48v-20.48h-20.48v20.48zM603.75 448.41h20.48v-20.48h-20.48v20.48zM583.27 448.41h20.48v-20.48h-20.48v20.48zM562.79 448.41h20.48v-20.48h-20.48v20.48zM542.31 448.41h20.48v-20.48h-20.48v20.48zM521.83 448.41h20.48v-20.48h-20.48v20.48zM501.35 448.41h20.48v-20.48h-20.48v20.48zM480.87 448.41h20.48v-20.48h-20.48v20.48zM460.39 448.41h20.48v-20.48h-20.48v20.48zM276.070 448.41h20.48v-20.48h-20.48v20.48zM255.59 448.41h20.48v-20.48h-20.48v20.48zM235.11 448.41h20.48v-20.48h-20.48v20.48zM214.63 448.41h20.48v-20.48h-20.48v20.48zM788.070 468.89h20.48v-20.48h-20.48v20.48zM767.59 468.89h20.48v-20.48h-20.48v20.48zM747.11 468.89h20.48v-20.48h-20.48v20.48zM726.63 468.89h20.48v-20.48h-20.48v20.48zM706.15 468.89h20.48v-20.48h-20.48v20.48zM685.67 468.89h20.48v-20.48h-20.48v20.48zM644.71 468.89h20.48v-20.48h-20.48v20.48zM624.23 468.89h20.48v-20.48h-20.48v20.48zM603.75 468.89h20.48v-20.48h-20.48v20.48zM583.27 468.89h20.48v-20.48h-20.48v20.48zM562.79 468.89h20.48v-20.48h-20.48v20.48zM542.31 468.89h20.48v-20.48h-20.48v20.48zM521.83 468.89h20.48v-20.48h-20.48v20.48zM501.35 468.89h20.48v-20.48h-20.48v20.48zM480.87 468.89h20.48v-20.48h-20.48v20.48zM460.39 468.89h20.48v-20.48h-20.48v20.48zM276.070 468.89h20.48v-20.48h-20.48v20.48zM255.59 468.89h20.48v-20.48h-20.48v20.48zM235.11 468.89h20.48v-20.48h-20.48v20.48zM214.63 468.89h20.48v-20.48h-20.48v20.48zM747.11 489.37h20.48v-20.48h-20.48v20.48zM726.63 489.37h20.48v-20.48h-20.48v20.48zM276.070 489.37h20.48v-20.48h-20.48v20.48zM255.59 489.37h20.48v-20.48h-20.48v20.48zM235.11 489.37h20.48v-20.48h-20.48v20.48zM214.63 489.37h20.48v-20.48h-20.48v20.48zM747.11 509.85h20.48v-20.48h-20.48v20.48zM726.63 509.85h20.48v-20.48h-20.48v20.48zM276.070 509.85h20.48v-20.48h-20.48v20.48zM255.59 509.85h20.48v-20.48h-20.48v20.48zM235.11 509.85h20.48v-20.48h-20.48v20.48zM214.63 509.85h20.48v-20.48h-20.48v20.48zM296.55 530.33h20.48v-20.48h-20.48v20.48zM276.070 530.33h20.48v-20.48h-20.48v20.48zM255.59 530.33h20.48v-20.48h-20.48v20.48zM235.11 530.33h20.48v-20.48h-20.48v20.48zM296.55 550.81h20.48v-20.48h-20.48v20.48zM276.070 550.81h20.48v-20.48h-20.48v20.48zM255.59 550.81h20.48v-20.48h-20.48v20.48zM235.11 550.81h20.48v-20.48h-20.48v20.48zM542.31 571.29h20.48v-20.48h-20.48v20.48zM317.030 571.29h20.48v-20.48h-20.48v20.48zM296.55 571.29h20.48v-20.48h-20.48v20.48zM276.070 571.29h20.48v-20.48h-20.48v20.48zM255.59 571.29h20.48v-20.48h-20.48v20.48zM562.79 591.77h20.48v-20.48h-20.48v20.48zM542.31 591.77h20.48v-20.48h-20.48v20.48zM521.83 591.77h20.48v-20.48h-20.48v20.48zM357.99 591.77h20.48v-20.48h-20.48v20.48zM337.51 591.77h20.48v-20.48h-20.48v20.48zM317.030 591.77h20.48v-20.48h-20.48v20.48zM296.55 591.77h20.48v-20.48h-20.48v20.48zM276.070 591.77h20.48v-20.48h-20.48v20.48zM255.59 591.77h20.48v-20.48h-20.48v20.48zM583.27 612.25h20.48v-20.48h-20.48v20.48zM562.79 612.25h20.48v-20.48h-20.48v20.48zM542.31 612.25h20.48v-20.48h-20.48v20.48zM521.83 612.25h20.48v-20.48h-20.48v20.48zM501.35 612.25h20.48v-20.48h-20.48v20.48zM480.87 612.25h20.48v-20.48h-20.48v20.48zM460.39 612.25h20.48v-20.48h-20.48v20.48zM439.91 612.25h20.48v-20.48h-20.48v20.48zM419.43 612.25h20.48v-20.48h-20.48v20.48zM398.95 612.25h20.48v-20.48h-20.48v20.48zM378.47 612.25h20.48v-20.48h-20.48v20.48zM357.99 612.25h20.48v-20.48h-20.48v20.48zM337.51 612.25h20.48v-20.48h-20.48v20.48zM317.030 612.25h20.48v-20.48h-20.48v20.48zM296.55 612.25h20.48v-20.48h-20.48v20.48zM276.070 612.25h20.48v-20.48h-20.48v20.48zM583.27 632.73h20.48v-20.48h-20.48v20.48zM562.79 632.73h20.48v-20.48h-20.48v20.48zM542.31 632.73h20.48v-20.48h-20.48v20.48zM521.83 632.73h20.48v-20.48h-20.48v20.48zM501.35 632.73h20.48v-20.48h-20.48v20.48zM480.87 632.73h20.48v-20.48h-20.48v20.48zM460.39 632.73h20.48v-20.48h-20.48v20.48zM439.91 632.73h20.48v-20.48h-20.48v20.48zM419.43 632.73h20.48v-20.48h-20.48v20.48zM398.95 632.73h20.48v-20.48h-20.48v20.48zM378.47 632.73h20.48v-20.48h-20.48v20.48zM357.99 632.73h20.48v-20.48h-20.48v20.48zM337.51 632.73h20.48v-20.48h-20.48v20.48zM317.030 632.73h20.48v-20.48h-20.48v20.48zM296.55 632.73h20.48v-20.48h-20.48v20.48zM542.31 653.21h20.48v-20.48h-20.48v20.48zM521.83 653.21h20.48v-20.48h-20.48v20.48zM501.35 653.21h20.48v-20.48h-20.48v20.48zM480.87 653.21h20.48v-20.48h-20.48v20.48zM460.39 653.21h20.48v-20.48h-20.48v20.48zM439.91 653.21h20.48v-20.48h-20.48v20.48zM419.43 653.21h20.48v-20.48h-20.48v20.48zM398.95 653.21h20.48v-20.48h-20.48v20.48zM378.47 653.21h20.48v-20.48h-20.48v20.48zM357.99 653.21h20.48v-20.48h-20.48v20.48zM337.51 653.21h20.48v-20.48h-20.48v20.48zM317.030 653.21h20.48v-20.48h-20.48v20.48zM501.35 673.69h20.48v-20.48h-20.48v20.48zM480.87 673.69h20.48v-20.48h-20.48v20.48zM460.39 673.69h20.48v-20.48h-20.48v20.48zM439.91 673.69h20.48v-20.48h-20.48v20.48zM419.43 673.69h20.48v-20.48h-20.48v20.48zM398.95 673.69h20.48v-20.48h-20.48v20.48zM378.47 673.69h20.48v-20.48h-20.48v20.48z" />
</font>
</defs>
</svg>
